<?xml version="1.0" encoding="utf-8" ?>
<svg xmlns="http://www.w3.org/2000/svg" xmlns:xlink="http://www.w3.org/1999/xlink" width="1024" height="1024">
	<path fill="#FEFEFE" d="M0 -0L1024 0L1024 1024L-0 1024L0 -0Z"/>
	<path fill="#231F20" d="M755.563 485.723L757.339 485.828C759.245 486.03 760.104 486.762 761.281 488.201L760.854 491.148C759.447 491.124 757.949 491.234 756.817 490.25C755.351 488.976 755.635 487.485 755.563 485.723Z"/>
	<path fill="#231F20" d="M591.331 105.838L593.085 105.86C595.209 105.982 596.128 106.712 597.535 108.25C598.071 109.915 597.586 110.406 596.965 112C594.145 111.648 592.339 110.39 590.531 108.25L591.331 105.838Z"/>
	<path fill="#231F20" d="M742.301 461.144C746.179 462.238 749.737 465.964 751.946 469.274C753.011 470.869 753.013 470.872 752.603 472.774C748.399 472.344 744.506 466.685 741.524 463.75L742.301 461.144Z"/>
	<path fill="#231F20" d="M751.803 484.255C752.808 484.519 753.527 485.035 754.387 485.603L754.53 486.75C751.843 489.845 749.223 492.882 746.101 495.558C745.146 495.148 744.424 494.536 743.601 493.913L743.561 492.75L751.803 484.255Z"/>
	<path fill="#231F20" d="M574.743 92.8815C577.587 93.6744 581.316 94.799 582.892 97.5C582.581 99.5724 581.853 99.8218 580.35 101.214C579.637 101.057 578.979 100.861 578.324 100.529C576.09 99.3995 573.312 98.2284 572.506 95.75C572.979 94.1721 573.515 93.9298 574.743 92.8815Z"/>
	<path fill="#231F20" d="M582.255 107.672L583.611 108.387C584.655 110.108 584.983 112.457 584.846 114.449C584.661 117.127 583.28 119.343 581.357 121.109C579.782 119.844 578.901 119.424 578.191 117.5C579.07 113.871 579.826 110.599 582.255 107.672Z"/>
	<path fill="#231F20" d="M765.628 463.298C766.93 463.507 767.488 463.926 768.501 464.75C768.125 468.058 761.519 473.638 759.095 476.193L758.67 476.066C757.541 475.553 757.163 474.803 756.623 473.75C758.59 469.945 762.505 466.245 765.628 463.298Z"/>
	<path fill="#231F20" d="M598.829 83.4029C600.061 83.4098 600.676 83.4795 601.75 84.0977C601.887 84.6051 602.009 84.9457 602.008 85.5C601.999 89.0556 596.467 96.3062 594.052 98.7991C592.489 98.3146 592.302 98.0018 591.25 96.8196C591.481 92.7854 595.955 86.2484 598.829 83.4029Z"/>
	<path fill="#231F20" d="M244.195 499.767C245.038 499.802 244.916 499.759 245.626 499.902C251.241 501.036 254.357 503.881 257.354 508.506C257.417 509.804 257.681 511.121 256.919 512.25L255.5 512.461L254.567 511.619C251.604 506.432 248.409 504.084 242.347 503.628C240.93 503.522 239.852 503.705 238.657 502.866C238.743 501.623 239.012 501.142 239.75 500.147L244.195 499.767Z"/>
	<path fill="#231F20" d="M746.093 909.653C747.886 909.525 750.055 909.182 751.818 909.553C753.021 909.806 753.258 910.063 753.915 911C752.059 913.034 746.325 913.198 743.542 913.898L729.559 917.847L728.5 918.052C726.355 918.515 724.872 918.603 722.677 918.315L722.073 917.25L722.487 916.25C724.657 914.656 727.568 913.914 730.131 913.171C735.423 911.638 740.67 910.594 746.093 909.653Z"/>
	<path fill="#231F20" d="M634.12 264.581C636.717 264.233 639.146 264.17 641.286 265.713L641.435 267.25L640.25 268.378C639.068 268.563 638.072 268.777 636.906 268.391C634.978 267.752 633.277 267.245 631.256 267.791L606.653 276.687C604.55 277.3 600.792 278.369 598.75 277.549C598.569 276.896 598.281 276.631 598.722 276.02C600.227 273.933 605.126 273.277 607.5 272.531L634.12 264.581Z"/>
	<path fill="#231F20" d="M765.896 765.867L767.645 766.25C768.313 766.927 769.218 767.74 769.461 768.691C770.178 771.494 767.153 776.373 765.445 778.399C763.222 781.038 761.667 781.573 758.257 781.887C756.525 781.235 755.773 780.663 754.589 779.25C754.487 777.805 754.231 775.977 754.611 774.57C755.832 770.041 762.131 767.632 765.896 765.867Z"/>
	<path fill="#231F20" d="M986.481 200.786L988.208 201.25C988.655 202.459 988.524 203.071 987.968 204.25C987.126 206.037 985.853 207.714 984.869 209.435C983.47 211.884 981.61 217.116 978.75 217.981C975.33 217.077 972.235 213.529 969.86 211.064L968.848 209.75L966.849 207.104C966.192 205.915 966.351 205.167 966.75 203.952C967.235 203.779 967.726 203.572 968.25 203.544C971.045 203.394 974.914 208.217 976.771 210.039C978.236 208.837 979.159 206.857 980.345 205.362C982.047 203.218 984.129 202.066 986.481 200.786Z"/>
	<path fill="#231F20" d="M213.142 504.672C219.007 504.01 226.524 506.935 231.104 510.573C234.693 513.422 238.431 518.628 240.146 522.811C240.812 524.437 240.929 526.179 241.563 527.75C242.104 529.091 243.43 530.413 243.432 531.883C243.434 532.702 241.863 533.69 241.249 534.225C238.447 531.232 237.581 527.9 235.962 524.25C234.187 520.249 231.18 516.586 227.821 513.792C225.294 511.69 222.483 510.132 219.339 509.142C216.656 508.297 212.419 508.903 210.558 507C211.044 505.48 211.782 505.429 213.142 504.672Z"/>
	<path fill="#231F20" d="M906.909 128.464C907.408 129.209 907.277 129.28 907.25 130.134C899.71 139.214 887.444 144.13 878.781 152.168C877.196 153.639 876.127 154.287 873.997 154.733C873.441 153.911 872.99 153.17 872.616 152.25C873.122 150.898 873.706 149.568 874.732 148.52C877.651 145.537 881.81 143.08 885.339 140.826C892.375 136.332 899.426 132.185 906.909 128.464Z"/>
	<path fill="#231F20" d="M831.795 84.8636C832.751 85.5235 832.363 85.0817 832.885 86.25L821.844 102.407L812.825 116.75C811.158 119.309 809.663 121.979 807.08 123.72C806.477 122.999 806.036 122.299 805.549 121.5C807.042 117.89 809.251 114.718 811.154 111.322C816.243 102.237 822.59 90.3466 831.795 84.8636Z"/>
	<path fill="#231F20" d="M636.426 127.162C638.356 127.588 640.288 129.331 641.892 130.47L651.305 136.943C656.744 140.454 662.508 143.311 667.729 147.175C671.71 150.122 675.984 153.434 679.25 157.163C679.594 158.915 679.068 159.525 678.37 161.135C677.559 161.008 676.747 160.883 676 160.525C671.809 158.516 667.438 153.539 663.573 150.722C658.508 147.03 637.033 135.216 635.563 130.46C635.131 129.06 635.809 128.37 636.426 127.162Z"/>
	<path fill="#231F20" d="M754.475 896.194C756.15 895.935 759.122 895.69 760.649 896.393L760.593 897.065C759.211 898.04 758.024 898.495 756.394 898.939C747.735 901.297 738.758 902.546 730 904.515L699.44 912.358C696.823 912.833 694.567 913.496 692.25 912.048L692.563 911.25C696.965 908.049 702.018 907.348 707.164 905.887C722.617 901.501 738.506 898.043 754.475 896.194Z"/>
	<path fill="#231F20" d="M957.386 227.181C958.128 227.177 958.555 227.329 959.25 227.56L959.562 228.75C957.856 230.478 954.721 231.497 952.423 232.254C946.687 234.143 940.064 234.76 934.135 236.344L909.892 243.372C906.405 244.377 904.212 245.599 900.481 245.944C899.556 245.269 899.229 244.817 898.75 243.781C898.881 243.119 899 242.677 899.462 242.163C901.286 240.134 906.943 239.122 909.704 238.28C924.864 233.658 941.539 228.374 957.386 227.181Z"/>
	<path fill="#231F20" d="M284.686 965.61C284.99 965.641 285.56 965.974 285.846 966.106C285.75 967.677 285.602 967.897 284.704 969.205C281.262 971.135 276.497 971.618 272.63 972.303L237.045 976.924L217.034 980.139L215.25 978.988L215.052 977.75C218.37 974.874 225.092 974.426 229.31 973.724L268.953 968.535L284.686 965.61Z"/>
	<path fill="#231F20" d="M657.015 355.442C657.999 355.538 658.561 355.72 659.466 356.07L659.815 357.25C659.554 357.837 659.44 358.517 659.031 359.012C657.822 360.472 648.637 364.571 646.347 365.845C636.862 371.121 627.567 376.611 618.649 382.809C612.843 386.844 607.088 392.168 600.846 395.382C600.488 395.308 600.082 395.24 599.75 395.084C598.503 394.498 598.43 394.227 598.057 393C598.891 391.181 602.573 389.242 604.271 387.971C620.975 375.473 638.208 364.524 657.015 355.442Z"/>
	<path fill="#231F20" d="M204.31 864.007L205.451 864.237C208.653 865.123 211.164 867.303 212.773 870.173L213.156 870.885L213.537 871.567C214.589 873.559 214.992 876.486 214.145 878.633C212.54 882.702 208.56 884.086 204.871 885.619L201.75 885.596C199.562 885.302 196.422 884.212 195.215 882.22C193.948 880.126 193.213 876.316 193.89 873.992L194.04 873.5C194.265 872.511 194.358 871.802 194.844 870.9C196.959 866.968 200.134 865.191 204.31 864.007Z"/>
	<path fill="#FEFEFE" d="M201.127 869.902L202.929 870.023C204.382 870.2 207.129 872.365 207.911 873.587C208.494 874.498 208.168 876.473 207.861 877.5C207.529 878.614 206.797 879.169 205.805 879.62C204.853 879.468 204.349 879.394 203.407 879.714L202.75 879.981C200.57 879.381 199.34 878.897 198.171 876.882C197.973 873.462 198.884 872.458 201.127 869.902Z"/>
	<path fill="#231F20" d="M720.672 69.5108L721.145 69.8086C723.381 71.4625 724.82 80.9555 725.699 83.914L735.586 117.034C737.126 122.821 738.796 128.985 739.359 134.948L739.457 136C739.717 137.526 739.814 138.713 739.515 140.25C739.159 142.08 738.582 142.137 737.137 143.156C736.101 141.099 736.442 138.405 736.149 136.136C735.824 133.623 735.142 131.122 734.446 128.689L721.502 88.3982C719.873 83.0318 717.56 77.1388 717.382 71.5C718.254 70.1823 719.226 70.0823 720.672 69.5108Z"/>
	<path fill="#231F20" d="M498.886 952.2C500.581 952.01 502.825 951.458 504.43 952.113L504.424 952.865C501.559 953.045 498.662 953.965 495.858 954.573L476.027 959.344L400.108 977.379C398.337 977.64 396.779 978.153 395.085 977.492L395.007 976.25C397.936 972.702 415.771 969.296 421 968.011C446.5 961.747 472.735 954.836 498.886 952.2Z"/>
	<path fill="#231F20" d="M46.7067 320.664L49.0328 321.75C50.9519 324.236 50.4685 332.105 50.5731 335.468L51.642 354.5C52.0802 358.915 52.6834 364.01 54.0627 368.25C55.8761 373.824 60.464 377.997 64.2811 382.286C67.8133 386.255 71.3311 390.716 75.7267 393.764C78.7171 395.838 82.0836 396.847 85.25 398.559C85.6045 399.846 85.3243 400.021 84.8939 401.235C82.2858 401.187 80.3386 400.991 77.9056 399.946L77 399.543L73.5491 397.876C69.8692 395.765 66.81 391.946 63.9203 388.884C60.055 384.787 55.4443 380.335 52.3007 375.655C50.636 373.177 49.6033 370.365 48.8506 367.494C46.1432 357.168 46.1793 345.439 45.7506 334.814C45.5852 330.715 44.6731 324.14 46.7067 320.664Z"/>
	<path fill="#231F20" d="M640.601 833.598C642.242 833.529 643.524 833.116 644.884 834.088C645.443 835.422 645.837 835.821 645.463 837.25C644.122 838.366 642.723 839.447 641 839.895C638.754 840.479 635.97 840.529 633.626 840.854L619.172 843.178L581.366 850.575L555.28 854.632C553.797 854.998 552.028 855.608 550.513 855.401C549.639 855.282 549.463 854.653 548.968 854L549.245 852.75C550.897 851.609 552.811 851.048 554.75 850.59C562.423 848.775 570.421 847.905 578.161 846.318L626.903 835.811C631.454 834.862 636.116 834.949 640.601 833.598Z"/>
	<path fill="#231F20" d="M75.4511 258.819C77.2783 258.972 78.3289 259.01 79.7325 260.25C79.3907 263.285 76.5972 266.935 75.5916 269.999C73.2931 277.003 72.7984 283.736 72.1904 291C71.7532 296.224 72.4008 301.641 72.25 306.895L72.3481 315.705C72.5771 319.026 72.3317 322.387 72.6255 325.705C73.6877 337.701 76.046 349.037 79.9318 360.452C78.9237 361.256 78.4636 362.037 77.1332 361.908C75.878 358.123 74.1991 354.51 73.025 350.692C70.0302 340.955 68.3349 331.401 67.8366 321.223L67.3672 306.5C67.3284 303.952 67.6008 301.219 67.2731 298.708L66.6271 294.019C66.3992 291.218 66.8967 288.069 67.1716 285.258C68.017 276.612 69.6063 265.633 75.4511 258.819Z"/>
	<path fill="#231F20" d="M386.281 612.563C387.327 612.516 388.529 612.545 389.5 612.986C391.861 614.061 393.361 616.244 394.422 618.505C396.042 621.957 394.966 624.715 393.679 628.17C391.285 634.594 385.543 639.566 379.453 642.325L378.892 642.204L378.058 641.979C377.52 641.841 376.997 641.738 376.491 641.493C373.837 640.205 371.194 636.045 370.427 633.237C369.225 628.841 369.427 625.663 371.912 621.783C375.384 616.363 380.198 613.977 386.281 612.563Z"/>
	<path fill="#FEFEFE" d="M384.925 618.457L387.5 618.427C388.181 619.071 388.844 619.663 389.266 620.518C390.067 622.141 389.977 623.755 389.436 625.443C387.941 630.105 384.64 633.668 380.44 635.984L380.028 635.87C378.053 635.213 376.931 634.158 376.043 632.25C374.716 629.401 374.863 628.384 376.059 625.582C377.799 621.506 381.058 620.034 384.925 618.457Z"/>
	<path fill="#231F20" d="M669.568 943.702C671.181 943.615 673 943.172 674.371 944.043L674.25 945.039C672.081 946.211 669.388 946.57 667 947.129L648.293 950.86L580.134 966.34L532.383 976.73L528.949 977.25C527.653 977.267 527.51 976.751 526.75 975.826L527.25 974.824C529.402 973.146 532.073 972.772 534.671 972.154L547.396 969.306L602.41 957.138L639.158 949.086C649.231 946.884 659.289 944.675 669.568 943.702Z"/>
	<path fill="#231F20" d="M212.06 714.682C213.198 714.924 214.518 715.166 215.382 716.001C216.453 717.033 216.595 717.813 216.49 719.25C216.125 724.263 214.168 730.159 212.323 734.797C205.231 752.626 191.985 766.508 178.873 780.14L147.664 810.649L131.615 824.672L129.5 825.344L128.594 824.75C128.584 824.167 128.39 823.557 128.563 823C129.015 821.535 131.743 819.529 132.896 818.531C138.26 813.89 144.068 809.79 149.011 804.681L182.706 768.9C192.072 758.29 201.462 747.632 207.002 734.415C209.62 728.171 209.899 721.643 211.86 715.306L212.06 714.682Z"/>
	<path fill="#231F20" d="M135.6 490.853L137.75 490.895C140.638 490.937 147.781 491.096 149.828 493.125L149.367 493.83L140.678 494.399C118.062 494.782 96.6978 509.346 81.5603 525.202C71.2209 536.031 63.1127 550.874 57.5059 564.603C54.9759 570.798 52.4704 577.688 51.6657 584.36C51.3001 587.391 51.5175 590.567 51.5968 593.614C51.8371 595.651 52.4105 597.79 52.4163 599.825C52.4214 601.628 52.5225 601.757 51.25 603.046C49.9163 603.396 49.9309 603.542 48.75 602.875C47.4745 600.396 46.5901 597.717 46.5703 594.909C46.5459 591.447 46.1166 587.723 46.8019 584.319C50.8187 564.364 60.1723 545.075 72.6186 528.935C83.7872 514.452 101.114 500.818 118.493 494.612C123.947 492.664 129.884 491.621 135.6 490.853Z"/>
	<path fill="#231F20" d="M580.905 702.056C582.125 702.117 582.256 702.302 583.25 703.045C583.323 704.704 583.686 705.806 582.75 707.212C577.776 709.441 571.448 709.748 566.088 710.612L525.5 716.637L462.759 726.823L401.759 735.552C398.78 735.877 395.915 736.524 392.883 736.769C392.096 736.632 391.467 736.268 390.75 735.928L390.596 735.042C392.664 733.795 395.494 733.572 397.864 733.215L413.11 731.12L434.532 727.825L494.115 717.732L516.5 714.487L542.498 709.721L580.905 702.056Z"/>
	<path fill="#231F20" d="M608.924 772.291C611.732 772.076 614.556 771.74 617.348 772.243L620.009 772.75L620.038 773.75C619.232 774.91 619.115 775.225 617.75 775.698C607.939 779.091 596.94 778.588 586.75 779.975L515.75 789.942L463.875 799.342L434.025 806.668L425.25 808.432L424.427 807.5L425.037 806.603C430.054 804.269 436.241 803.318 441.568 801.757C478.387 790.967 516.663 785.3 554.5 779.496L608.924 772.291Z"/>
	<path fill="#231F20" d="M598.494 763.683C599.186 763.646 600.056 763.541 600.75 763.696C602.447 764.074 603 764.881 603.914 766.25L603.485 768C602.348 769.375 601.128 769.801 599.5 770.458C595.637 769.881 590.72 771.247 586.835 771.805L555.244 776.628L494.452 784.913L415.117 797.135C413.6 797.581 411.173 797.757 409.75 797.025L409.49 796L410.519 794.544C412.453 793.518 414.578 793.455 416.714 793.161L426.506 791.686L520 777.52C525.658 776.686 532.08 774.461 537.73 774.541C539.262 774.562 539.953 773.797 541.383 773.638L574.854 768.203C582.675 766.831 590.87 765.83 598.494 763.683Z"/>
	<path fill="#231F20" d="M632.784 819.541C634.107 821.003 635.631 822.427 636.435 824.25C635.572 825.333 634.643 825.714 633.25 825.982C631.808 826.26 630.312 826.058 628.851 826.351C613.484 829.434 598.027 833.404 582.5 835.576L447.147 860.895C446.212 861.086 445.802 861.176 444.829 861.107C443.094 861.339 441.112 861.828 439.555 861L439.438 859.75C442.934 856.276 453.397 856.192 458.096 855.585L482.677 851.819L516.716 844.179L566.161 833.721L632.784 819.541Z"/>
	<path fill="#231F20" d="M577.316 712.25L577.76 712.212C581.559 712.005 589.905 711.88 592.873 714.573C593.182 716.085 592.697 717.265 592.25 718.689C590.267 719.975 587.758 718.717 585.5 718.577C583.651 718.462 581.622 718.546 579.758 718.582C569.506 718.783 559.077 720.057 548.926 721.449L496.565 730.022C470.416 735.51 444.325 742.46 417.917 746.451C412.83 747.395 406.923 748.569 401.75 748.375C401.34 747.025 401.515 747.035 402.156 745.75L403.5 745.458L529.264 718.699L577.316 712.25Z"/>
	<path fill="#231F20" d="M690.046 923.252C690.379 923.26 691.512 923.652 691.85 923.75L692.478 925.25L692.11 926.116C688.553 928.105 682.958 928.094 678.934 928.63L659.947 931.344L618.033 938.163L507.424 962.296L462.64 973.745C461.199 973.637 461.104 973.719 460.06 972.75L460.25 971.182C466.4 968.049 473.991 966.845 480.644 965.068L530.305 953.069C566.985 944.942 603.32 936.164 640.5 930.536C656.915 928.051 673.434 924.091 690.046 923.252Z"/>
	<path fill="#231F20" d="M788.72 557.822L789.106 557.867L789.737 557.988C791.738 558.349 792.972 559.389 794.421 560.747C796.614 562.801 798.208 565.528 799.97 567.95C808.671 579.912 814.944 593.46 817.25 608.197L818.692 619.513C818.837 620.648 818.602 622.204 818.86 623.25C819.688 626.614 820.415 643.443 819.084 646.627C818.772 647.374 818.626 647.566 818.625 648.442C818.623 651.425 817.664 655.212 818.151 658.007L818.313 658.609C817.497 660.074 817.678 661.53 817.211 663.091C816.886 664.178 816.984 663.698 816.812 664.591C814.426 677.031 809.337 688.244 803.499 699.365C799.291 707.381 795.044 715.029 789.87 722.498C782.544 733.076 773.604 741.758 763.714 749.911C749.73 761.44 736.597 770.041 718.438 773.367C716.803 773.494 715.123 774.148 713.622 773.46C713.884 771.47 718.175 770.62 720 770.036C740.992 763.319 758.124 749.872 773.714 734.617C784.801 723.767 792.536 711.061 799.352 697.251C801.977 691.932 804.872 686.77 806.971 681.208C808.277 677.749 809.079 674.09 810.071 670.533C811.2 666.481 812.76 661.902 812.76 657.675C812.76 656.603 812.679 657.205 812.938 656.076C814.528 649.13 814.566 641.958 814.562 634.872C814.552 615.177 811.859 593.601 800.657 576.831C798.254 573.234 795.692 569.31 792.973 565.963C791.599 564.272 788.568 562.384 787.943 560.362C787.69 559.544 788.384 558.568 788.72 557.822Z"/>
	<path fill="#231F20" d="M378.915 716.1L379.75 716.643C380.369 718.136 380.775 719.395 380.993 721L379.75 722.162L386.866 755.5C386.143 757.239 385.83 757.219 384.25 758.112C384.606 759.249 384.367 759.881 384.038 761C383.049 761.988 382.792 762.356 381.37 762.602C376.05 763.525 369.951 763.061 364.521 763.462C360.66 763.747 356.952 764.891 353.133 765.331C352.233 765.435 351.707 765.524 350.852 765.882C348.528 766.855 345.287 767.39 342.778 767.941L333.25 770.345C332.185 769.449 331.965 769.3 331.521 768C332.325 766.088 333.938 765.347 335.652 764.25C334.797 762.406 333.985 760.537 334.189 758.463C334.279 757.556 333.388 756.142 332.998 755.252C332.121 753.251 331.14 751.068 331.075 748.858C331.045 747.842 331.159 748.252 330.872 747.473C330.349 746.051 330.057 744.217 330.227 742.703L330.321 741.907L330.098 740.75C330.084 739.322 330.495 738.534 331.5 737.638L332.669 738.25L332.474 740L336.297 749.569L362.124 738.713L367.25 736.546C368.846 736.081 369.377 736.415 370.743 737.25C371.307 738.585 371.412 738.624 371.024 740C368.416 742.456 366.195 742.947 362.848 743.853C368.194 748.785 374.521 750.423 381.27 752.454L377.75 733.825C377.285 731.013 377.325 725.478 375.25 723.489C371.726 724.101 369.126 725.261 366 726.908C364.136 727.89 363.969 727.855 362.043 727.25L361.495 726.25L361.25 725.328C356.617 725.501 351.78 727.094 347.269 728.184C342.83 729.257 338.372 729.947 333.875 730.708C331.567 731.098 328.84 731.764 326.5 731.688C325.084 731.641 324.417 731.212 323.459 730.25L323.901 729.25C324.886 728.506 325.693 727.944 326.901 727.63C329.858 726.861 333.032 726.72 336.045 726.203L350 723.376C355.131 722.332 360.455 721.432 365.5 720.062L378.915 716.1Z"/>
	<path fill="#FEFEFE" d="M356.683 745.453L357.75 745.295L358.405 746C356.798 749.59 352.862 752.756 349.998 755.331C347.02 758.01 344.17 760.91 340.793 763.092C340.183 761.731 339.4 760.393 339.44 758.879C339.491 756.994 338.472 754.967 337.817 753.198C339.822 751.987 342.281 751.255 344.443 750.349L356.683 745.453Z"/>
	<path fill="#FEFEFE" d="M361.296 748.63L384.014 757.836L366.515 759.034C359.727 759.515 353.592 760.098 347.054 762.189L361.296 748.63Z"/>
	<path fill="#231F20" d="M385.282 778.685C387.518 778.489 389.627 778.226 391.541 779.617C391.799 779.804 392.118 779.938 392.301 780.198C392.906 781.057 392.658 784.168 392.802 785.25C393.432 790.004 394.72 794.666 395.563 799.384C396.351 803.801 398.401 807.721 399.354 812C399.755 813.802 399.725 815.142 398.75 816.673C394.027 819.446 387.323 820.626 382.023 822.173L360.582 828.761C358.986 829.258 351.696 833.567 351.039 833.429C350.13 833.239 348.91 830.863 348 830.478C347.311 830.186 345.334 830.345 344.5 830.304C345.6 829.891 346.204 829.61 347.033 828.75C346.05 824.952 343.654 821.528 342.376 817.795C340.168 811.345 339.594 804.196 338.613 797.5C338.33 795.571 338.33 794.976 339.5 793.463L340.25 793.62C342.896 797.85 343.418 804.564 344.152 809.448C344.33 810.693 344.306 811.504 345.25 812.419C350.522 810.899 355.913 810.318 361.225 809.026C362.057 808.824 364.171 808.52 364.83 808.084C365.798 807.445 366.351 803.766 367.291 802.768C367.986 802.03 369.745 801.299 370.635 800.767L383.947 792.982C386.027 791.69 386.931 791.431 389.25 791.996C389.046 788.743 389.039 786.187 388.156 783.005C376.631 783.628 364.696 786.765 353.358 788.981C350.383 789.563 341.876 792.08 339.465 791.024L339.02 789.75L339.527 788.75C347.446 785.433 357.042 783.858 365.474 782.285L385.282 778.685Z"/>
	<path fill="#FEFEFE" d="M389.347 793.993C390.725 795.435 390.847 800.556 391.124 802.584C385.212 803.563 379.754 805.598 373.712 805.728C373.381 805.828 372.684 805.753 372.329 805.75L372.412 805.342C373.911 801.145 385.574 796.183 389.347 793.993Z"/>
	<path fill="#FEFEFE" d="M362.317 811.564L362.978 811.616C363.2 813.883 357.382 820.086 355.98 822C355.08 823.229 354.307 824.794 353.25 825.882C352.368 826.79 351.475 827.056 350.25 826.975L349.875 825.83L345.786 815.593L362.317 811.564Z"/>
	<path fill="#FEFEFE" d="M391.475 804.691C392.306 805.476 392.651 809.301 393.227 810.638L393.602 811.468C389.044 813.123 384.127 813.804 379.5 815.516C372.78 818.003 366.517 821.523 359.787 823.966L358.5 824.097L358.148 823.75C361.613 819.66 365.256 815.663 367.728 810.874L368.13 810.084L391.475 804.691Z"/>
	<path fill="#231F20" d="M404.688 843.252L406.75 843.722C408.432 845.065 409.304 846.657 410.009 848.685C412.333 855.368 418.483 882.66 415.443 888.25C415.227 888.648 414.639 889.524 414.28 889.75C412.533 890.849 408.79 890.313 406.75 890.505C403.612 890.799 400.228 891.399 397.162 892.15C390.202 893.855 383.903 896.03 377.337 898.876C373.806 900.407 369.616 903.026 365.939 903.837L365 904.031C364.186 904.246 363.877 904.435 362.996 904.398L359.229 904.23C358.576 904.039 357.877 903.671 357.25 903.399C355.254 900.905 354.683 896.593 353.836 893.534C351.009 883.329 348.171 872.862 346.661 862.369C346.349 860.196 346.515 857.835 346.543 855.639C356.491 846.732 371.454 846.987 384 845.471C390.95 844.631 397.672 843.606 404.688 843.252Z"/>
	<path fill="#FEFEFE" d="M398.266 847.702L402.985 847.468C403.528 849.216 404.187 851.016 404.475 852.825C405.28 857.895 407.134 863.075 407.443 868.182C407.489 868.943 407.547 869.404 407.741 870.172C408.594 873.537 409.494 878.313 409.568 881.75L408.5 882.61L407.5 882.25C407.401 880.855 407.378 879.115 406.769 877.832C406.083 876.387 404.706 875.187 403.75 873.894C401.568 870.942 399.783 867.996 397.262 865.285C399.065 871.84 403.031 876.166 406.62 881.75L406.25 882.588C402.966 883.074 399.707 884.104 396.463 884.82C393.677 885.435 390.595 885.759 387.904 886.676C380.1 889.337 372.156 893.775 364.617 897.248C369.384 888.576 375.004 881.061 378.702 871.768C381.599 875.67 383.715 881.854 387.528 884.75L388.517 884.25C389.742 881.829 390.027 878.766 390.547 876.112C391.26 873.137 391.868 870.264 393.905 867.879C394.864 867.681 395.124 867.657 395.893 867C394.87 866.238 394.626 866.322 393.329 866.277C389.625 869.497 388 875.314 387.407 880.035L387.332 880.664L378.597 867.363L358.824 901.249L348.381 856.59C355.851 853.106 362.959 852.173 371 850.926L398.266 847.702Z"/>
	<path fill="#231F20" d="M155.94 513.689C171.562 512.975 184.509 516.372 196.353 527.213C207.33 537.261 208.391 553.743 209.01 567.594C211.243 567.061 213.442 566.613 215.736 566.447C227.415 565.605 239.779 569.899 248.516 577.596C256.429 584.567 259.046 594.077 259.663 604.282C259.955 609.126 259.741 614.102 258.274 618.758C257.141 622.353 254.964 625.897 253.237 629.255C248.725 638.03 243.482 646.546 237.495 654.405C230.605 663.451 222.717 671.758 215.363 680.417L190.713 710.212C185.656 716.46 181.382 723.558 176.472 729.991L143.249 769.975L129.733 784.057C127.346 786.59 125.02 789.764 122.353 791.964C121.353 792.789 120.996 792.76 119.75 792.835L118.042 791.25C118.018 790.667 117.847 790.071 117.969 789.5C118.373 787.605 121.401 784.583 122.63 783.081L144.32 758.285L173.75 721.903L203.382 682.323C210.676 673.515 219.69 666.246 226.759 657.18C234.709 646.984 242.352 636.14 248.451 624.735C250.582 620.581 252.984 615.554 253.432 610.868C254.271 602.087 252.249 592.23 246.641 585.303C239.977 577.071 230.76 573.156 220.5 571.894C216.594 571.414 213.094 572.479 209.471 573.757L211.18 596.75C211.559 599.283 212.122 604.799 211.284 607.199L211.018 607.75C211.536 609.373 211.445 611.064 211.75 612.737C215.537 610.42 219.436 603.906 223.616 603.154C225.688 602.781 227.112 603.346 228.75 604.554C228.908 605.385 229.103 605.863 228.879 606.707C227.94 610.26 220.135 614.817 217.278 617.541C209.642 624.819 203.037 633.197 195.5 640.621C187.008 648.984 176.579 655.916 166.366 661.993C162.617 664.224 158.729 665.759 154.775 667.557C142.898 672.959 132.269 676.671 119.061 676.586C116.742 676.571 114.096 676.746 111.858 676.165C106.549 674.787 102.38 673.022 97.4479 670.57L97.1048 671.367C94.6151 677.119 91.4201 682.609 88.5681 688.196C82.6977 699.695 77.4104 710.604 69.3277 720.725C68.1359 722.217 66.5232 724.757 64.75 725.455C64.392 725.332 64.0464 725.245 63.75 724.979C63.6635 724.901 62.6405 723.677 62.5763 723.5C62.5221 723.351 63.1163 721.793 63.17 721.66C64.9894 717.181 68.3945 712.497 70.754 708.185L87.4052 676.5L91.0685 668.803C91.1815 668.541 91.89 667.175 91.8745 666.921C91.8301 666.194 89.4464 663.478 88.8465 662.656C85.8796 658.591 82.5897 654.314 80.4192 649.766C76.5126 641.578 74.522 631.716 72.2495 622.942C71.2487 619.079 69.6522 614.917 69.3295 610.95C68.718 603.434 68.3118 595.372 69.6547 587.916C70.4473 583.515 72.4098 579.27 74.3219 575.258C78.1776 567.17 82.7051 559.432 88.2656 552.394C94.6828 544.272 102.188 535.596 110.865 529.853C117.039 525.767 124.034 523.027 130.913 520.387C139.154 517.225 147.147 514.692 155.94 513.689Z"/>
	<path fill="#FEFEFE" d="M183.784 628.992C183.827 630.187 183.033 631.018 182.426 632.035C180.489 635.282 177.623 638.63 178.01 642.5L179 643.19C181.432 642.393 182.011 640.724 183.958 639.25C183.324 642.428 181.757 643.433 179.252 645.168L171.278 650.682C175.58 643.481 178.481 635.535 183.784 628.992Z"/>
	<path fill="#FEFEFE" d="M129.313 605.913L129.888 607C129.222 612.336 124.891 617.407 122.78 622.337C122.373 623.287 122.703 622.854 121.75 623.534L121.129 622.395C120.672 620.15 119.424 614.585 120.25 612.755C121.659 613.01 121.643 613.147 122.591 614.25L123.425 614.25C125.677 611.568 127.553 608.94 129.313 605.913Z"/>
	<path fill="#FEFEFE" d="M141.658 602.591C142.635 602.452 142.821 602.463 143.739 602.819L143.379 606.987C142.347 607.451 141.966 605.509 140.5 605.055C139.936 605.286 139.304 605.394 138.809 605.75C137.926 606.386 136.491 609.154 135.88 610.155C131.824 616.8 127.983 623.616 124.576 630.616L124.392 630.567C124.052 628.783 125.031 626.919 125.766 625.31C127.882 620.677 135.213 611.354 134.013 606.5C132.522 605.369 131.967 605.478 130.145 605.328L141.658 602.591Z"/>
	<path fill="#FEFEFE" d="M191.728 606.864C191.951 607.944 191.996 608.043 191.474 609C190.135 611.459 188.153 613.712 186.57 616.029C182.732 621.646 178.204 627.84 175.254 633.943L167.187 649.908C167.055 648.166 166.551 646.259 166.716 644.532C166.794 643.724 166.615 641.9 166.865 641.25C167.039 640.798 168.306 639.719 168.672 639.325C170.124 637.76 171.405 636.241 172.585 634.457C173.082 633.704 173.443 633.7 174.25 633.34C175.806 629.977 178.438 626.88 180.515 623.809L191.728 606.864Z"/>
	<path fill="#FEFEFE" d="M179.855 549.53L180.288 549.839L162.007 581.44C161.509 579.903 161.37 578.097 161.113 576.5C163.288 572.475 166.901 569.067 169.367 565.156C171.317 562.063 172.982 558.667 174.661 555.417C175.375 554.034 176.211 551.91 177.343 550.841C177.864 550.348 179.179 549.883 179.855 549.53Z"/>
	<path fill="#FEFEFE" d="M158.598 518.724C162.225 518.506 166.086 518.731 169.595 519.702C179.867 522.546 188.77 528.054 195.448 536.492L196.038 537.25C203.693 546.976 202.744 563.363 203.25 575.11C203.523 581.445 203.913 588.068 203.736 594.394C203.538 601.494 204.44 609.568 203.159 616.523C202.506 620.07 202.106 623 200.35 626.214L198.535 602.25L192.884 558.346C192.386 554.623 192.844 549.383 191.801 545.962C191.478 544.903 192.352 542.659 192.651 541.5L192.043 540.853C190.99 540.525 189.617 540.031 188.5 540.116C185.551 540.341 181.98 542.042 179.021 542.75C174.664 543.792 169.948 544.381 165.516 545.184C162.346 545.759 157.223 545.618 154.5 547.001C153.232 547.646 152.893 548.499 152.409 549.75C154.232 555.062 153.68 561.336 154.584 566.82C155.949 575.103 155.721 583.813 156.289 592.15C156.433 594.263 157.178 596.558 157.087 598.624C156.968 601.312 157.289 606.021 157.807 608.706C158.41 611.824 158.327 615.149 158.675 618.317C158.998 621.266 160.088 625.113 159.622 628.025C159.477 628.932 159.406 628.529 159.571 629.383C161.303 638.329 161.435 648.016 161.927 657.122L159.381 657.945C158.484 658.287 158.371 658.308 157.342 658.25C155.106 653.599 154.7 647.196 153.657 642.126C153.643 636.149 152.283 629.924 151.461 624L147.935 597.968C139.362 598.134 131.075 599.673 122.604 600.754C119.426 601.16 114.355 600.967 111.75 602.499C110.118 605.967 113.162 613.867 113.901 617.624L118.394 646.405C119.258 654.349 119.488 662.409 121.309 670.199C118.505 670.184 115.745 670.192 113 669.524C103.254 667.151 94.8577 659.552 89.734 651.173C85.4896 644.232 83.5923 636.452 81.4779 628.675C79.5973 621.757 77.1708 614.794 76.4814 607.623C76.1077 603.736 76.4181 599.887 76.4904 596C76.554 592.586 76.3742 589.226 77.22 585.889C79.332 577.555 82.342 569.129 87.0924 561.908C90.7398 556.363 95.5055 551.23 99.8533 546.217C110.013 534.503 122.049 528.781 136.498 523.852C143.771 521.371 150.898 519.276 158.598 518.724Z"/>
	<path fill="#231F20" d="M776.52 172.289C793.684 170.896 809.773 174.367 825.087 182.233C832.149 185.861 837.431 190.341 843.241 195.638C861.066 211.892 873.576 230.923 880.827 253.953C885.816 269.796 886.27 284.888 885.243 301.313C884.66 310.631 883.88 319.422 881.27 328.453C878.53 337.938 874.454 346.463 869.927 355.184C876.67 356.533 884.339 359.934 888.453 365.775C890.258 368.337 891.116 371.473 892.097 374.411C892.818 376.573 893.407 379.228 895.19 380.747C903.668 387.975 910.083 396.324 917.215 404.752L927.814 416.274L939.018 429.679L954.337 446.161C963.854 456.714 972.707 467.889 979.945 480.118C978.469 483.545 976.459 486.226 974.166 489.151C974.265 490.753 974.115 492.249 973.49 493.75C969.958 502.232 959.926 509.543 951.745 513.035C947.296 514.934 938.401 517.084 933.893 514.865C932.836 514.345 931.91 512.882 931.173 511.967L923.922 502.693C917.114 494.072 909.705 485.978 902.165 478.001C886.274 461.275 873.389 442.089 857.959 425.009C855.268 422.031 852.336 418.607 849.211 416.093C847.463 414.687 845.22 414.034 843.25 413.007C840.805 411.731 838.837 409.799 837.3 407.529C834.463 403.336 835.195 397.036 836.035 392.266L836.184 391.443C834.978 390.906 834.07 389.892 833.117 389C833.529 387.867 834.399 387.383 835.299 386.609C832.211 385.838 826.931 389.775 823.983 390.939C814.548 394.665 805.411 397.803 795.499 400.017C788.992 401.47 781.896 401.783 775.25 401.485C772.722 401.372 770.23 400.765 767.68 400.92C766.792 400.974 765.965 401.046 765.076 400.977C741.49 399.131 717.535 383.315 702.337 365.86C692.153 354.165 683.942 341.18 677.1 327.28C673.807 320.59 670.611 313.676 668.504 306.502C666.376 299.252 665.656 291.839 664.956 284.345C664.272 277.026 663.583 269.818 664.133 262.45C664.563 256.697 665.501 251.301 667.24 245.778C672.319 229.651 682.983 217.182 694.743 205.424C702.366 197.804 710.88 190.225 720.535 185.291C734.685 178.06 748.44 175.048 764.198 173.543C766.447 173.328 769.079 172.513 771.262 172.613C773.012 172.693 774.776 172.448 776.52 172.289Z"/>
	<path fill="#FEFEFE" d="M897.345 447.223C901.584 451.461 903.693 457.646 908.146 461.483L908.467 461.75L907.685 463.119C905.858 461.488 896.594 451.877 896.017 450.004C895.776 449.223 896.919 447.911 897.345 447.223Z"/>
	<path fill="#FEFEFE" d="M888.531 433.755C890.798 436.511 893.626 439.506 895.177 442.75C896.061 444.598 895.447 445.542 894.817 447.327L893.687 447.477L885.393 438.116C885.437 436.838 887.658 434.802 888.531 433.755Z"/>
	<path fill="#FEFEFE" d="M869.901 362.332L870.13 362.363C873.523 362.766 874.805 363.987 877.596 365.693C879.807 367.044 882.048 368.107 883.25 370.539C884.752 373.577 884.919 377.328 883.62 380.482C882.705 382.705 880.897 384.813 879.408 386.689C873.165 394.555 866.779 398.808 857.792 403.052C854.67 404.729 852.33 404.676 848.856 404.506C847.506 403.598 844.773 402.171 843.994 400.774C843.376 399.666 843.373 397.789 843.667 396.595C843.867 395.784 844.53 394.202 845.182 393.683C845.922 393.093 847.783 392.549 848.707 392.131C850.906 391.136 852.998 390.017 855.025 388.703C860.693 385.025 868.056 377.527 869.379 370.65L869.493 370C870.026 367.233 870.218 365.178 869.901 362.332Z"/>
	<path fill="#FEFEFE" d="M890.017 385.733C898.339 392.439 904.604 400.352 911.467 408.438L931.876 431.848C936.994 437.551 942.866 442.533 948.353 447.865C951.805 451.221 954.972 454.987 958.146 458.614C962.14 463.179 965.839 467.634 968.476 473.126C967.253 476.632 964.534 480.949 962.34 483.956C955.971 492.685 945.632 494.338 935.719 496.008C939.119 492.941 946.451 490.033 947.794 485.281C948.089 484.237 948.069 484.662 947.5 483.633C945.891 484.001 944.322 485.322 942.957 486.25C939.932 488.307 936.906 490.339 934.237 492.854L933.732 493.336L929.927 488.312L935.48 485.187C937.195 484.044 939.014 482.32 939.467 480.25C938.37 479.109 938.324 479.129 936.75 478.902C934.198 481.819 930.689 483.666 927.425 485.685C926.502 484.903 925.711 484.267 925.035 483.25C927.342 481.034 930.331 480.023 932.75 477.904L932.644 476.918C932.644 475.412 933.028 476.411 932.337 475.202L922.371 479.945C920.812 478.609 919.567 477.039 918.259 475.467C921.602 472.278 924.18 469.426 926.108 465.184C923.594 466.459 920.894 467.654 918.684 469.421C917.445 470.411 916.213 471.249 914.862 472.081C913.157 470.439 911.887 468.817 910.609 466.827L915.129 463.115C913.887 462.51 911.571 461.765 910.59 460.906C909.005 459.518 907.287 455.254 905.971 453.273L889.912 429.75C888.996 428.393 888.627 427.805 887 427.527L886.054 428.25L886.75 431.245L883.569 435.864L880.62 432.774L883.75 428.589C884.837 426.938 885.285 425.696 884.96 423.75L884 423.085C883.49 423.345 883.416 423.364 882.877 423.75C880.967 425.118 879.438 426.588 879.084 428.988L878.956 430L878.25 430.351C877.076 429.64 876.106 429.114 875.37 427.913C874.373 426.285 873.128 424.982 871.846 423.57L877.582 417.25C878.471 416.1 878.009 415.095 877.832 413.75C875.094 413.167 871.783 419.416 868.964 420.183C868.123 419.394 867.504 418.773 866.96 417.75L867.962 416.883C872.139 413.46 873.873 408.828 877.063 404.75C878.64 402.732 880.734 401.116 882.363 399.105C885.575 395.14 887.641 390.22 890.017 385.733Z"/>
	<path fill="#FEFEFE" d="M772.675 177.258L777.661 177.378C793.093 177.956 809.489 182.766 822.025 192.026C825.025 194.242 827.804 197.416 830.327 200.173C835.94 206.307 839.925 213.935 844.59 220.779C854.031 234.628 865.024 250.296 868.889 266.785C871.076 276.112 871.131 286.003 870.742 295.523C869.81 318.321 862.647 342.058 845.483 357.904C847.011 360.409 848.18 363.214 849.867 365.59C852.539 369.352 856.112 372.877 859.155 376.373C855.451 380.893 850.285 383.633 845.195 386.333C842.803 384.789 841.26 381.346 839.264 379.25C836.321 376.159 831.114 372.629 827.378 370.575C822.244 374.149 817.117 375.812 811.216 377.725C804.635 379.859 797.896 381.686 791.047 382.685L771.419 385.158C766.948 385.59 760.918 385.485 756.575 384.447C753.558 383.727 750.818 382.479 747.892 381.519C732.601 376.502 721.186 368.914 708.711 358.982C706.45 357.181 703.766 355.859 701.641 353.917C697.056 349.731 693.18 343.894 689.808 338.686C682.067 326.731 674.849 313.364 670.537 299.745C669.89 297.701 668.784 295.139 668.735 293.003C668.682 290.663 667.682 288.349 667.504 285.965L667.455 285.25C666.863 278.149 668.015 271.443 668.372 264.427C668.887 254.301 672.584 242.105 677.191 233.109C678.388 230.771 679.572 228.203 681.256 226.175L688.152 217.68C691.439 213.92 695.312 210.502 698.93 207.049C705.727 200.562 712.675 194.579 720.881 189.893C736.658 180.885 754.828 178.394 772.675 177.258Z"/>
	<path fill="#231F20" d="M766.546 191.779C774.573 192.856 782.653 193.841 790.5 195.969C806.276 200.248 819.333 208.844 830.482 220.625C843.504 234.385 854.257 253.035 857.277 271.838C857.811 275.162 858.475 278.814 858.34 282.186L858.387 291.858C858.412 292.532 858.495 293.09 858.274 293.744C857.671 295.527 857.674 297.631 857.372 299.5L855.662 307.674C851.299 327.004 840.452 346.94 823.256 357.582C819.306 360.026 814.922 361.858 810.57 363.445C808.984 364.023 807.827 364.749 806.171 364.363C806.056 361.474 807.938 360.979 810.194 359.746C814.69 357.29 819.791 354.795 823.818 351.632C831.39 345.682 838.109 335.491 841.593 326.587C843.411 321.942 844.617 316.936 846.226 312.194L842.25 316.741L841.75 314.825C840.669 310.879 843.934 305.794 844.722 301.75C844.417 300.108 843.513 299.246 842.444 298.047C840.807 297.737 837.245 300.714 835.579 301.753L832.728 298.796L832.215 298.323C832.556 295.972 833.077 293.764 831.815 291.595L831.442 291C830.692 289.754 830.067 288.746 828.829 287.916C827.915 287.303 825.757 286.4 824.684 286.908C823.416 287.509 822.603 288.927 821.765 290.024C819.423 293.086 816.752 296.992 812.6 297.497C808.621 297.981 802.133 290.027 798.75 287.553L797.502 287.762C794.501 292.47 795.616 296.954 795.497 302.25C795.443 304.687 794.834 307.189 794.089 309.5C793.813 310.356 793.451 311.964 792.952 312.689C789.77 317.316 780.786 317.244 777.814 322.234C774.334 328.077 783.858 331.122 784.882 336.25C786.175 342.725 777.63 344.821 773.784 348.418C772.272 349.832 771.27 351.628 770.252 353.404C771.516 355.33 772.879 357.345 774.572 358.924C777.301 361.471 780.829 363.212 782.103 366.94L782.25 367.409C785.303 367.665 789.4 366.238 792.165 367.255C793.159 367.621 793.425 367.811 793.91 368.75L793.558 369.165C790.21 372.457 784.082 372.599 779.658 373.279C777.173 373.66 774.487 374.266 771.98 374.228C768.789 374.181 766.21 374.69 763.154 373.265C762.252 372.844 762.002 372.625 760.953 372.585C758.652 372.496 756.226 371.482 754.037 370.786C740.618 366.518 726.829 358.06 716.262 348.703C704.981 338.713 694.047 325.702 688.973 311.334C685.479 301.439 684.308 290.187 683.715 279.75C683.426 274.651 683.338 269.194 684.216 264.151C684.92 260.105 686.456 256.143 687.882 252.307C692.658 239.465 699.924 227.371 709.052 217.142C713.105 212.6 717.608 207.707 722.543 204.1C735.424 194.688 751.069 192.626 766.546 191.779Z"/>
	<path fill="#FEFEFE" d="M804.239 221.426C806.835 221.417 809.041 222.743 811.281 223.887C805.976 224.336 802.076 224.834 797.144 226.868C795.458 227.689 793.564 228.168 791.778 228.742L793.25 227.437C795.601 225.387 798.256 225.241 800.528 223.569C801.816 222.622 802.76 222.061 804.239 221.426Z"/>
	<path fill="#FEFEFE" d="M788.744 212.607L789.91 212.822C791.447 213.227 793.527 213.975 794.344 215.398C792.13 217.189 788.659 217.996 785.882 218.293L777.71 217.946C779.73 216.553 781.686 215.063 784.097 214.461C785.622 214.08 786.811 213.605 788.212 212.886L788.744 212.607Z"/>
	<path fill="#FEFEFE" d="M772.071 208.411C775.01 208.291 778.935 209.994 781.719 210.963C779.491 212.541 776.009 215.58 773.442 216.27C771.965 216.667 770.146 216.539 768.625 216.514L756.896 216.468C761.637 213.304 766.965 210.926 772.071 208.411Z"/>
	<path fill="#FEFEFE" d="M743.586 208.048L749.97 207.985C746.09 210.576 741.888 214.988 739.159 218.75C738.232 220.028 737.883 221.506 736.88 222.75C736.253 222.551 735.656 222.105 735 222.152C733.691 222.246 733.766 223.033 731.95 222.75L731.323 223.1C729.272 223.484 727.473 223.141 725.317 223.719L724.75 223.877L724.398 223.489C730.078 217.279 735.737 211.402 743.586 208.048Z"/>
	<path fill="#FEFEFE" d="M758.422 209.501L760.5 209.543C760.672 210.921 750.619 216.268 749.891 220L750.5 220.675C752.129 219.852 753.418 219.318 755.267 219.373C757.834 219.45 767.093 219.419 768.582 221L767.038 223.5L767.503 224.318C769.549 223.889 771.572 221.054 773.101 220.843C773.932 220.728 775.602 221.157 776.486 221.267L784.368 222.219C782.337 223.526 780.603 225.207 778.791 226.796C778.349 228.403 778.185 229.772 778.142 231.436C779.342 231.457 784.029 226.3 785.75 225.262C787.959 223.929 789.863 223.146 792.433 223.75L790.366 226.018C789.774 226.748 789.39 227.394 789.002 228.25L790.302 229.095C784.879 232.561 778.603 234.309 773.263 238.147L772.627 238.609C766.835 232.996 761.614 230.024 754.275 226.75C752.588 225.998 750.421 224.719 748.596 224.525C745.449 224.189 742.378 223.466 739.289 222.779C745.107 216.468 750.53 212.892 758.422 209.501Z"/>
	<path fill="#FEFEFE" d="M808.623 230.775L823.75 232.536C824.761 232.652 827.413 232.596 828.25 232.999C828.742 233.236 829.733 234.407 830.163 234.834C834.33 238.979 837.895 244.653 840.715 249.789C847.217 261.634 851.006 272.71 851.399 286.25C851.505 289.915 850.947 293.674 850.636 297.332C849.489 295.725 848.273 293.911 846.828 292.571C844.848 290.735 841.251 291.06 838.751 291.262L837.917 291.333C836.353 288.336 834.753 285.631 832.21 283.346C829.482 280.895 827.074 280.504 823.508 280.798L822.862 280.858L822.668 280.964C819.658 282.556 818.603 284.738 816.469 287.232C815.07 288.866 813.486 290.097 811.766 291.369C806.785 287.275 803.154 280.991 796.623 279.183C793.222 278.241 793.035 273.99 791.221 271.182C786.036 263.155 777.562 257.885 771.132 250.965L772.968 248.5C774.866 246.2 777.086 243.494 779.511 241.75C782.556 239.56 786.36 238.304 789.798 236.858C793.457 235.319 797.506 232.805 801.291 231.767C803.615 231.129 806.222 230.999 808.623 230.775Z"/>
	<path fill="#FEFEFE" d="M732.477 228.267C734.79 228.13 737.341 228.025 739.638 228.318C750.706 229.733 761.326 233.778 769.676 241.359C768.364 243.61 766.255 246.423 766.344 249.092L766.389 249.75C766.464 251.078 766.488 252.556 767.116 253.765C768.537 256.495 771.433 258.332 773.826 260.136C781.374 265.829 787.301 271.71 789.98 281C789.262 282.734 789.414 284.963 789.346 286.822C789.13 292.751 790.601 302.148 788.071 307.407C786.515 310.642 781.21 313.705 778 315.033C774.932 316.302 771.843 318.432 770.668 321.694C767.989 329.127 774.747 331.904 777.215 337.544C773.184 339.741 769.166 341.736 766.358 345.527C764.507 348.026 762.638 352.114 763.341 355.303L763.524 356C763.261 356.603 763.062 357.137 762.913 357.782C762.718 358.622 762.5 358.57 761.829 359.069C758.665 359.988 754.187 361.998 751.002 360.797L750.25 360.487C734.107 354.402 722.024 343.251 711.749 329.696C700.917 315.406 693.932 295.031 693.548 277.167C693.478 273.878 693.247 270.451 693.738 267.19L694.25 264.048C694.805 260.603 696.343 257.919 697.71 254.75C699.878 249.727 701.444 244.194 705.202 240.067C711.9 232.711 722.765 228.759 732.477 228.267Z"/>
	<path fill="#231F20" d="M693.155 528.683C702.351 527.308 713.55 529.795 722.714 531.061C740.999 533.586 755.422 546.138 766.194 560.482C775.815 573.294 780.768 587.186 784.645 602.536C788.998 619.77 791.193 636.194 788.611 653.856C787.199 663.513 783.736 670.473 779.646 679.201C776.042 686.894 772.766 694.307 767.962 701.418C760.276 712.797 748.157 723.718 737.129 731.862C732.71 735.126 728.091 737.032 723.042 739.084C716.011 741.941 709.623 744.122 702.121 745.455C700.419 745.757 697.969 746.505 696.288 746.205C694.661 745.914 692.729 746.271 691.053 746.313L678.843 746.524L660.063 746.283C660.601 754.957 660.59 763.549 661.808 772.183C663.671 785.388 667.387 798.005 670.22 810.997L672.657 823.218C673.042 825.427 673.142 827.825 673.736 829.969C674.78 833.734 675.108 837.777 675.75 841.635C678.822 860.105 679.097 878.656 681.481 897.143L753 886.44L785.162 882.517C787.777 882.302 790.359 881.676 792.985 881.598L806.307 880.998C808.164 880.99 812.05 880.662 813.396 882C812.409 883.238 811.127 883.565 809.567 883.855C796.929 886.205 783.635 886.417 770.862 888.122L702.361 899.14C690.076 901.071 676.943 901.848 665.134 905.752L663.877 914.965C661.697 920.216 644.92 920.964 639.976 921.777L626.67 924.377L589.691 931.339L559.25 937.506L508.906 944.796C505.68 945.293 502.778 946.773 499.569 947.259C480.023 950.219 459.991 951.575 440.582 955.298C418.518 959.53 397.14 965.954 375.388 971.402L337.708 979.905L313.577 986.25C312.141 986.562 311.513 986.713 310.25 985.936L309.995 984.75C310.565 983.686 310.899 983.437 312.017 982.866C314.645 981.523 318.076 980.903 320.928 980.175L337.313 976.214C339.313 975.735 341.983 975.485 343.75 974.435L343.75 974.192L339.674 974.316C334.988 974.015 328.616 975.088 324.297 973.142L323.75 972.837C320.452 973.758 317.201 974.069 313.878 974.75L296.507 978.446L276.235 983.813C275.579 983.956 275.893 983.979 275.25 983.692L274.75 983.469C274.557 982.793 274.195 982.394 274.669 981.769C275.413 980.788 276.795 980.254 277.899 979.747C283.061 977.375 289.231 976.493 294.75 975.288L313.29 971.07L308.698 968.312C303.204 964.649 298.385 956.337 296.66 950.085C290.433 927.507 289.513 903.384 287.091 880.174L280.67 834.195L277.147 797.499C275.765 787.073 273.347 777.033 271.143 766.772L263.77 732.506C262.711 727.915 261.073 723.579 260.124 718.919C259.175 714.257 258.68 708.536 261.424 704.369C266.315 703.755 271.103 700.908 275.858 699.523C281.714 697.816 287.932 696.927 293.951 695.939L294.75 695.615C297.789 696.275 301.092 695.447 304.119 694.961L324.491 691.322L347.319 687.664L408 678.538L435.5 674.515L492.25 664.164L553.155 657.344C560.471 656.695 567.314 655.108 574.75 655.03C575.799 655.656 576.613 656.2 576.873 657.5C577.082 658.54 577.134 660.256 576.516 661.134C574.152 664.499 568.265 664.238 564.574 664.459C558.755 664.808 552.061 664.688 546.374 665.703C541.175 666.631 535.64 666.771 530.371 667.426L491.079 672.621L374.75 689.485L329.25 696.213C316.941 698.184 304.755 700.042 292.643 703.084C292.416 704.41 293.478 706.681 293.822 708.083L297.587 724.047L302.178 755.878C303.673 766.709 303.38 777.81 304.808 788.687L312.745 837.494L314.993 858.819L321.146 905.25C321.732 909.737 322.277 914.478 322.391 919C322.518 924.081 322.046 930.137 323.128 935.125C323.331 936.06 323.439 936.483 323.334 937.47C322.785 942.64 324.932 949.393 325.68 954.625C336.56 953.05 346.164 947.214 356.792 945.453L372.17 943.607L417.051 937.386L483.444 925.75L581.222 910.427L628.5 901.332L645.347 897.579C653.787 895.529 662.226 893.328 670.952 893.181C671.593 892.111 670.73 888.119 670.646 886.693L666.75 848.505L661.378 808.864L655.836 780.805L653.882 765.583C652.886 759.911 653.668 753.573 653.2 747.752C653.144 747.054 653.171 745.041 652.894 744.476C652.813 744.311 652.594 744.261 652.434 744.17C649.45 742.46 645.308 741.91 642 741.031C632.865 738.606 620.81 734.009 614.331 727.004L613.75 726.367C612.749 726.439 611.952 726.368 610.962 726.25C609.485 724.884 610.139 724.253 609.25 722.899C608.605 721.917 607.05 720.769 606.181 719.917C603.737 717.523 601.302 715.132 599.166 712.451C587.269 697.52 581.675 680.584 578.75 661.942L578.528 660.522C578.084 657.178 578.498 653.33 578.404 649.89C578.082 638.039 579.575 627.26 582.634 615.801C583.747 611.631 584.832 607.265 586.538 603.296C590.842 593.285 597.032 584.073 603.587 575.414C625.162 546.91 658.849 533.607 693.155 528.683Z"/>
	<path fill="#FEFEFE" d="M606.54 912.716C607.749 913.187 608.131 913.218 608.882 914.25C607.916 916.456 606.466 918.299 605.058 920.236L604 920.626L603.513 920C604.348 917.494 605.282 915.042 606.54 912.716Z"/>
	<path fill="#FEFEFE" d="M293.001 853.799L296.229 854.75C297.595 855.269 297.899 855.726 298.543 857C298.722 859.793 297.431 862.006 296.246 864.437L294.855 866.384C293.303 864.618 293.185 856.39 293.001 853.799Z"/>
	<path fill="#FEFEFE" d="M316.443 954.937L316.944 957C318.383 961.272 321.749 962.194 325.353 964.129C325.066 965.214 325.122 964.827 325.015 965.841C324.916 966.776 325.103 966.298 324.5 967.119L323.731 966.451C319.937 963.746 315.711 962.035 312.055 959.082L316.443 954.937Z"/>
	<path fill="#FEFEFE" d="M535.517 926.153L536.63 926.25L533.503 928.25C533.442 929.606 533.245 930.717 534.079 931.883L536.25 932.117L536.546 932.75C533.635 933.775 529.527 933.736 526.382 934.197L521.364 934.784C523.575 933.501 526.056 932.21 528 930.557C529.074 929.645 530.399 927.781 531.531 927.126C532.351 926.651 534.529 926.394 535.517 926.153Z"/>
	<path fill="#FEFEFE" d="M345.002 958.581C345.089 958.796 345.271 958.993 345.262 959.225C345.246 959.639 342.202 963.057 341.75 963.703C340.642 965.287 340.077 966.845 339.596 968.707L339.461 969.25C338.085 970.585 336.533 970.337 334.679 970.495L334.202 969.75C335.948 966.565 337.606 962.799 340.069 960.14C341.822 960.15 342.85 959.657 344.413 958.88L345.002 958.581Z"/>
	<path fill="#FEFEFE" d="M298.9 876.513L299.149 876.791L299.268 877.505L299.47 878.5C299.875 880.66 300.799 881.734 302.2 883.357C303.543 884.913 300.319 886.605 299.662 888.053C299.44 888.543 299.527 890.004 299.486 890.605L297.5 891.429C296.165 889.964 296.584 881.107 296.474 878.75L298.9 876.513Z"/>
	<path fill="#FEFEFE" d="M289.207 746.5C290.963 747.886 291.279 750.187 291.633 752.25C290.914 754.577 286.023 757.08 283.878 758.552L283 759.089L282.392 758.75L285.534 751.25C286.353 748.815 287.092 748.007 289.207 746.5Z"/>
	<path fill="#FEFEFE" d="M297.222 819.327C297.447 821.301 298.672 824.64 298.549 826.454C298.511 827.005 296.266 829.322 295.842 829.824C293.87 832.159 292.23 834.534 290.642 837.138L289.833 825.847C290.571 825.019 290.226 825.209 291.002 824.863C293.65 823.685 295.339 821.456 297.222 819.327Z"/>
	<path fill="#FEFEFE" d="M407.362 949.706C409.008 949.587 410.227 949.381 411.721 950.25C411.815 951.318 411.885 952.009 412.56 952.856L413.09 953.493L412.966 954.25C409.208 955.62 404.435 958.032 400.492 958.455C399.442 958.567 400.03 958.398 399.008 958.793C396.855 959.625 394.493 960.067 392.25 960.618L391.666 960.181C392.571 958.122 393.255 956.024 393.509 953.784C393.621 952.799 393.669 952.071 394.104 951.163C395.846 951.038 397.557 950.795 399.273 951.222L397.642 953.082C397.671 954.686 398.318 954.99 399.358 956.165C400.918 956.812 401.66 956.656 403.212 956.25C405.725 954.32 406.636 952.765 407.362 949.706Z"/>
	<path fill="#FEFEFE" d="M309.3 893.156L310.956 895C311.078 899.226 301.651 908.14 298.784 911.426C298.559 909.701 297.002 904.069 297.362 902.768C297.5 902.268 298.546 901.223 298.883 900.827C299.883 899.652 300.999 898.506 301.632 897.082C302.14 895.941 301.752 896.537 302.5 895.618C303.34 896.487 303.19 896.326 304.25 896.527C305.992 895.768 307.296 894.814 308.761 893.606L309.3 893.156Z"/>
	<path fill="#FEFEFE" d="M314.434 925.933L314.836 926.338C315.306 929.025 315.061 931.929 315.038 934.654C313.154 936.543 311.412 938.503 309.897 940.706C308.623 942.559 307.646 945.517 305.75 946.732L304.984 945.878L302.801 938.459C302.454 936.82 302.116 935.04 303.022 933.602C307.62 933.573 311.176 928.913 314.434 925.933Z"/>
	<path fill="#FEFEFE" d="M384.178 952.049L384.667 951.776L385.215 952.25C384.525 955.669 384.002 958.624 384.301 962.108L384.369 962.865C379.999 963.933 375.708 965.265 371.236 965.825L371.16 965.818C370.86 965.648 370.318 965.594 370.297 965.25C370.293 965.174 371.078 963.768 371.175 963.578C372.701 960.596 374.581 957.265 373.618 954L374.25 953.008C377.625 952.332 380.734 951.935 384.178 952.049Z"/>
	<path fill="#FEFEFE" d="M369.25 953.63L369.879 954L369.25 954.603C366.37 957.099 364.447 960.591 362.446 963.82C361.968 964.59 361.103 966.514 360.483 967.057C360.192 967.311 357.318 967.594 356.642 967.795L354.75 968.284L348.711 968.761L347.375 968.75C350.437 965.4 353.491 961.634 355.155 957.376L355.33 956.91C359.809 955.143 364.532 954.486 369.25 953.63Z"/>
	<path fill="#FEFEFE" d="M293.704 771.439L294.332 771.84C295.677 774.25 295.011 779.92 294.909 782.75C291.385 785.259 288.439 792.806 287.414 796.961L287.303 797.434L286.694 797.605L283.76 777.868L293.704 771.439Z"/>
	<path fill="#FEFEFE" d="M313.264 905.699L314.126 909.5C314.324 910.53 314.795 912.252 314.714 913.231C314.444 916.483 304.072 927.181 301.684 930.813L301.202 931.555L299.431 916.675L313.264 905.699Z"/>
	<path fill="#FEFEFE" d="M488.492 936.199L489.578 936.369C491.569 939.99 492.519 937.341 495.25 939.214C493.486 940.871 488.178 941.229 485.717 941.595L461.171 945.203C458.788 945.566 456.275 945.223 453.946 945.843L449.121 946.846L446.25 947.333L446.161 946.75C449.514 944.028 456.535 939.339 460.958 939.525C461.813 939.561 462.057 939.559 462.859 939.29C464.897 938.609 466.425 941.32 468.25 942.07C468.835 942.31 470.892 942.053 471.569 941.958C474.794 941.504 476.237 937.955 479.992 937.59C480.633 937.528 481.163 937.499 481.778 937.291C484.006 936.538 486.163 936.403 488.492 936.199Z"/>
	<path fill="#FEFEFE" d="M642.34 905.617L642.877 905.499C644.93 905.32 650.532 907.615 652.043 909L651.75 909.578C647.861 911.78 643.026 912.531 638.726 913.627C636.757 914.128 634.734 915.072 632.763 915.379C631.188 915.624 629.648 916.113 628.112 916.543L620.198 918.597C621.986 915.601 623.166 912.276 624.508 909.062L642.34 905.617Z"/>
	<path fill="#FEFEFE" d="M592.465 915.214L593.101 915.75C592.171 917.949 591.059 920.219 590.473 922.534L590.248 923.475L562.614 929.484L561.961 929C564.797 926.13 566.726 923.345 568.554 919.756C576.217 917.46 584.511 915.95 592.465 915.214Z"/>
	<path fill="#FEFEFE" d="M700.185 539.266C708.513 539.526 717.297 541.392 725.031 544.488C728.324 545.806 731.406 547.562 734.624 549.04C737.044 550.151 739.68 550.968 741.991 552.274C745.775 554.411 750.214 556.813 753.543 559.579C770.576 573.731 774.898 599.346 780.245 619.487C780.78 621.502 780.625 623.626 780.902 625.69C781.693 631.581 781.501 637.112 781.002 643C780.692 646.653 780.679 650.46 779.951 654.055C777.86 664.387 773.569 673.283 768.207 682.259C764.519 688.434 759.5 693.88 754.433 698.941C744.554 708.811 733.452 717.788 720.46 723.169C714.059 725.821 707.66 726.922 701.047 728.664C698.192 729.416 695.267 729.56 692.374 730.096C686.718 731.143 679.461 730.646 673.683 730.355L672.981 730.25L666.756 729.648C650.079 728.953 633.53 718.25 621.566 707.34C607.476 694.491 598.514 681.468 594.508 662.639C593.68 658.745 592.739 654.719 592.57 650.731C591.194 618.128 605.755 589.676 627.514 566.361C634.457 558.921 641.467 555.904 650.556 551.865C666.453 544.801 682.729 539.926 700.185 539.266Z"/>
	<path fill="#231F20" d="M682.085 564.135C686.792 563.927 689.704 564.086 693.767 566.793C701.307 571.816 706.417 576.915 708.301 586.139C707.745 587.612 707.864 589.428 707.815 591L708.25 591.462C711.643 587.906 716.276 586.39 720.867 585.009L721.375 575.876C721.427 573.138 721.476 569.417 723.5 567.473C724.79 567.697 725.769 567.88 726.398 569.25C726.603 569.695 726.456 571.681 726.469 572.258L726.69 582.919C726.696 583.202 726.67 585.092 726.737 585.202C726.936 585.53 727.48 585.391 727.852 585.485C731.328 586.363 734.944 586.557 737.304 589.559C738.539 591.131 739.279 593.252 738.84 595.25C738.042 598.88 734.56 601.036 731.75 603.047L731.722 603.766C733.241 603.432 733.516 603.267 734.948 604.006C738.481 605.829 741.474 609.316 743.983 612.354C748.664 618.023 752.649 623.804 756.325 630.164C757.974 633.017 759.871 635.847 760.85 639.02C761.238 640.281 762.623 644 762.037 645.069C760.981 646.995 759.711 649.132 757.713 650.21C753.999 652.216 748.886 653.108 744.75 653.953C729.414 657.088 713.274 657.347 698.251 661.753C697.998 663.409 700.293 668.76 700.778 670.794C701.099 674.311 701.16 677.802 698.92 680.807C694.348 686.944 670.472 689.986 661.998 691.636C653.546 693.281 645.345 693.173 636.782 692.802C632.52 692.618 626.717 692.532 623.027 690.138L622.468 689.75C621.504 689.096 620.576 688.471 619.83 687.557C619.307 686.918 618.91 686.185 618.635 685.407C617.599 682.472 618.827 678.783 619.602 675.872C622.377 665.437 626.953 656.477 631.367 646.75C632.599 644.035 633.42 640.829 634.459 638C634.668 637.432 635.674 635.479 635.639 634.971C635.62 634.695 634.247 632.994 634.034 632.686C631.383 628.856 629.525 625.341 630.103 620.5C630.681 615.656 633.437 610.441 637.432 607.596C640.879 605.141 644.161 603.84 648.439 604.643C650.089 604.952 651.994 605.519 653.656 605.221L654.25 605.089L656.5 606.526L657.181 606.25C654.648 601.083 653.518 594.432 655.174 588.823L655.429 588C656.29 585.138 657.33 582.447 659.062 579.982C664.516 572.22 672.668 565.877 682.085 564.135Z"/>
	<path fill="#FEFEFE" d="M651.99 622.639L657.106 622.642C660.056 622.492 662.357 623.489 665.035 624.566C665.679 626.63 666.849 629.457 666.677 631.614C666.588 632.729 666.594 632.862 665.75 633.638L660.016 633.103C655.114 632.303 648.007 632.77 643.75 630.396C643.485 629.32 643.391 629.723 643.842 628.791C645.172 626.044 649.225 623.603 651.99 622.639Z"/>
	<path fill="#FEFEFE" d="M721.494 590.59L723.75 590.493L724.383 590.455C727.005 590.353 731.4 591.311 733.398 593.094L733.455 594.25C730.225 597.961 726.545 599.908 722.219 602.096C720.935 602.733 718.97 603.946 717.583 604.077C715.918 604.233 713.802 603.16 712.75 601.962C711.89 599.102 712.062 596.987 713.219 594.25C715.631 592.01 718.391 591.335 721.494 590.59Z"/>
	<path fill="#FEFEFE" d="M645.124 608.654C647.1 608.495 649.004 608.306 650.881 609.083C654.5 610.58 656.03 614.448 657.572 617.767C655.012 617.965 652.457 617.357 649.908 617.569C647.164 617.797 644.488 619.578 642.343 621.186L641.815 621.589C640.431 622.589 640.598 623.356 639.945 624.75C639.308 626.111 638.87 626.926 637.5 627.49C636.507 626.588 635.932 625.735 635.475 624.484C634.282 621.216 635.491 617.393 637.078 614.425C638.856 611.098 641.653 609.694 645.124 608.654Z"/>
	<path fill="#FEFEFE" d="M706.176 597.344C706.53 599.921 707.348 602.634 708.297 605.059L708.548 605.687C706.006 608.857 704.62 610.238 701 612.043C699.588 612.747 699.061 613.878 698.55 615.287L698.391 615.75C693.231 618.915 687.737 621.951 681.453 621.238C680.6 621.141 680.21 621.065 679.328 621.272L678.75 621.463C676.776 620.399 673.368 620.401 671.117 620.103C670.693 620.086 670.148 620.089 669.75 619.94C668.077 619.312 668.071 618.49 667.573 617C667.738 616.712 667.789 616.316 668.067 616.135C668.602 615.789 672.816 616.446 673.779 616.51C677.291 616.744 681.394 616.965 684.762 615.816L685.5 615.551L687.031 615.092C692.474 613.296 698.222 609.875 701.787 605.318C703.592 603.011 704.857 599.953 706.176 597.344Z"/>
	<path fill="#FEFEFE" d="M698.971 620.042L699.312 620.435L686.923 651.786L685.5 648.75C684.299 646.197 682.898 644.399 681.055 642.306C679.762 641.013 676.272 638.266 675.524 636.775C675.129 635.99 675.493 632.302 675.485 631.211L671.432 625.236C673.215 625.582 675.289 626.195 677.095 626.168L678.25 626.095C680.291 626.366 681.922 626.823 684.102 626.334L685.014 626.124C690.028 625.528 694.419 623.621 698.416 620.487L698.971 620.042Z"/>
	<path fill="#FEFEFE" d="M682.506 569.012C683.434 568.948 684.365 568.828 685.283 569.027L686.75 569.39C687.823 569.51 688.45 569.275 689.479 569.783C693.991 572.011 700.938 577.645 702.306 582.619C703.826 588.143 702.455 594.843 699.442 599.612C695.157 606.397 688.779 609.795 681.125 611.513C676.674 611.638 671.189 612.232 667.374 609.468C663.287 606.508 660.306 601.773 659.428 596.824L659.307 596.102C658.674 592.64 659.61 589.146 661.161 586.016C665.425 577.41 673.69 571.991 682.506 569.012Z"/>
	<path fill="#FEFEFE" d="M719.453 608.796C721.481 609.305 723.547 609.903 725.614 610.216C727.028 610.431 728.673 610.352 729.908 611.16L730.5 611.59C731.8 611.321 733.149 611.116 734.365 610.566L734.864 610.298C742.776 617.445 751.551 629.485 755.172 639.507C756.024 641.865 756.711 642.834 755.63 645.126C751.683 648.711 724.546 651.514 717.612 652.484L695.75 656.511C694.908 655.766 694.481 655.295 694.052 654.25L694.985 653.376C697.343 650.615 697.707 645.763 698.619 642.32C699.86 637.63 701.308 632.72 703.094 628.216C704.24 625.324 708.417 617.137 707.875 614.277L707.683 613.5C708.486 612.343 708.668 612.314 709.994 611.794L710.571 612.25C710.184 614.904 709.767 617.328 710.25 619.998C711.624 620.91 711.545 621.029 713.147 620.75C715.789 617.531 717.961 613.414 719.246 609.462L719.453 608.796Z"/>
	<path fill="#FEFEFE" d="M654.647 638.278C658.745 638.655 665.489 637.526 669.023 639.579L669.514 639.879C674.387 642.665 677.174 647.019 681.127 650.75C682.112 651.679 682.631 651.93 683.995 651.75L684.964 651.574C686.079 654.632 688.83 659.112 691.149 661.413C693.125 663.374 693.622 664.908 694.37 667.5C695.678 672.035 695.34 674.402 694.137 678.849C681.986 682.575 669.245 685.397 656.619 686.843C648.216 687.607 633.825 689.392 626.15 685.594C624.821 684.937 623.973 683.836 623.631 682.406C623.309 681.057 624.519 678.409 624.935 677.058C627.631 668.289 631.15 660.317 634.864 651.973C635.701 650.094 636.234 647.562 637.444 645.919C638.009 645.152 638.335 645.003 638.55 644.001L638.75 642.963C639.143 641.628 639.549 639.777 640.75 639.069C641.705 640.382 639.457 642.165 639.563 643.933C640.958 644.738 643.26 645.548 644.891 645.342C648.29 644.913 648.376 641.851 650 639.509C651.545 639.322 652.754 639.034 654.202 638.459L654.647 638.278Z"/>
	<path fill="#231F20" d="M504.398 45.2112C509.998 44.4909 517.32 44.2082 522.636 46.1705C526.388 50.7984 528.199 56.2641 529.543 62C533.351 78.2492 533.372 95.2742 534.509 111.856L539.641 182.292L547.345 248.699L548.599 261.231C548.815 263.139 549.507 264.97 549.575 266.891L556.279 329.543C556.481 333.192 556.319 337.306 553.632 340.126C551.712 342.141 548.9 343.955 546.254 344.83C542.443 346.09 537.812 345.823 533.81 346.463C529.521 347.149 486.319 355.163 485.455 355.855C484.968 356.246 484.62 356.785 484.203 357.25C483.279 364.802 483.726 373.027 483.746 380.658C483.751 382.63 483.186 385.662 483.861 387.45L484.151 388C482.48 391.854 483.898 397.449 482.958 401.706L482.845 402.173C489.338 403.626 495.892 405.478 502.021 408.1C519.286 415.488 533.981 426.203 541.115 444.168L636.944 435.824C637.989 435.607 638.02 436.272 638.981 436.248L659.75 435.966L660.976 434.25C663.919 432.641 670.918 434.665 674.153 435.387C684.245 437.642 694.554 441.146 704.708 442.74C711.138 443.749 718.008 443.447 724.5 443.966C726.24 444.105 726.637 444.488 727.801 445.75C728.039 447.638 728.361 449.717 727.48 451.5C725.524 455.459 717.708 458.805 714.024 461.504L701.259 471.349L682.972 484.159C680.032 486.237 677.55 488.562 674.962 491.063C673.413 492.561 670.963 495.365 668.85 495.925C667.486 496.286 666.142 495.153 665.146 494.382C663.102 490.274 663.072 486.917 663.012 482.443L545.961 487.501C545.097 501.26 539.983 514.352 531.497 525.151C534.268 528.252 537.761 530.833 541.006 533.419L559.453 548.019C560.175 555.899 558.026 564.495 553.402 570.974C551.152 574.127 543.868 582.439 540.25 583.046C537.704 582.266 535.526 580.133 533.434 578.536C523.181 570.712 513.863 561.304 504.776 552.165C499.467 556.049 494.196 559.297 488.387 562.365C465.542 574.426 439.078 573.612 414.883 566.143C410.422 564.545 406.035 563.043 401.919 560.648C391.876 554.805 381.485 543.885 375.48 534.038C369.506 524.242 365.65 511.221 364.67 499.81C364.343 496.013 364.615 492.152 364.425 488.341C364.134 482.474 363.645 476.147 365.121 470.416L365.372 469.5C366.198 466.377 368.667 461.56 368.554 458.527C368.445 455.634 370.478 452.079 371.362 449.25C369.808 448.248 367.702 448.413 365.899 448.653C356.956 449.845 348.081 452.859 339.066 454.276L268.024 464.105C266.083 464.374 262.212 464.749 260.535 465.75C260.088 466.017 259.278 467.416 258.916 467.895C257.118 467.896 256.787 467.627 255.282 466.75C255.782 460.548 252.827 453.767 252.569 447.53C252.248 439.763 250.957 431.872 250.235 424.116C249.573 417.002 249.447 409.544 248.472 402.5C248.223 400.701 246.946 398.484 246.959 396.75C246.969 395.327 247.726 395.297 247.082 393.75C245.224 393.091 241.89 394.006 239.93 394.206C219.543 396.286 199.607 400.029 179.661 404.698C164.86 408.163 150.139 412.444 135.123 414.785C131.177 412.483 128.523 409.279 125.965 405.578C118.138 394.257 114.834 380.133 112.201 366.804C110.27 357.027 109.99 346.96 109.331 337.047L106.54 298.25L101.534 235.438L97.1741 201.262C95.8471 189.61 95.7049 177.511 93.4497 166.022C92.5855 161.619 91.7351 157.302 90.3553 153.028C88.6824 147.845 86.4556 142.802 85.1846 137.501C83.4037 130.072 83.2037 121.961 80.7255 114.755C80.4588 113.98 80.6895 113.541 80.8491 112.75C79.9343 111.692 78.5755 110.155 78.5008 108.72C78.4133 107.039 80.1513 103.59 81.3355 102.335C82.7078 100.881 85.323 99.9603 87.2977 99.9955L88 100.029L90.0163 97.7469C93.3076 94.3986 96.6392 94.6647 101 94.5822C101.868 93.8891 102.417 93.6179 103.5 93.3694C104.156 93.613 104.764 93.926 105.482 93.8458L459.728 50.1215L504.398 45.2112Z"/>
	<path fill="#FEFEFE" d="M267.874 390.706C268.466 390.526 269.178 390.609 269.796 390.605C266.739 393.117 261.73 394.674 258.125 396.32L257.274 396.75C257.096 395.686 256.911 394.681 256.583 393.651L256.307 392.802L267.874 390.706Z"/>
	<path fill="#FEFEFE" d="M683.813 476.045L684.276 476.288C681.045 479.865 676.562 482.756 672.674 485.573L672.157 485.082C672.04 483.398 671.644 482.222 672.524 480.75C676.534 479.731 680.107 477.837 683.813 476.045Z"/>
	<path fill="#FEFEFE" d="M102.095 106.385C102.85 107.049 103.365 107.607 103.75 108.564C104.617 110.718 100.06 118.83 99.1413 121.598L98.9653 121.669L98.1808 121.25C97.402 116.584 100.7 110.882 102.095 106.385Z"/>
	<path fill="#FEFEFE" d="M411.936 558.033C414.135 558.542 416.38 558.564 418.564 559.063C426.498 560.877 435.08 563.461 442.722 566.308C431.505 567.003 421.577 563.249 411.936 558.033Z"/>
	<path fill="#FEFEFE" d="M135.004 383.494L135.385 383.928L134.819 385.25C135.315 386.046 135.093 385.815 135.713 386.389L136.122 386.75L136.334 400.5L135.75 400.899L134.582 399.017L128.741 389.19C129.59 387.603 133.151 385.56 134.582 383.973L135.004 383.494Z"/>
	<path fill="#FEFEFE" d="M112.265 147.359L113.442 147.75L114.398 154.092C111.123 155.596 107.65 156.817 104.869 159.148L104.418 159.535L103.75 159.378C103.384 157.952 102.864 156.747 102.221 155.424L112.265 147.359Z"/>
	<path fill="#FEFEFE" d="M127.387 273.968C128.296 275.175 128.182 278.326 128.311 279.919L116.324 291.787C115.759 290.279 115.395 288.407 115.603 286.802C115.68 286.204 115.783 285.608 115.826 285.006L115.873 284.25L127.387 273.968Z"/>
	<path fill="#FEFEFE" d="M124.496 236.366C124.258 239.25 124.505 242.329 125.027 245.171L125.11 245.603L115.25 256.183C114.059 253.388 114.364 250.458 114.479 247.5C118.308 244.39 121.605 240.345 124.496 236.366Z"/>
	<path fill="#FEFEFE" d="M511.302 548.984L534.896 566.392C537.653 568.576 541.523 570.883 542.946 574.157L541 574.025C530.571 566.901 518.635 559.406 511.302 548.984Z"/>
	<path fill="#FEFEFE" d="M383.082 371.712L383.75 372.203C382.067 373.639 379.837 374.544 377.863 375.549C375.67 376.664 373.355 378.083 371.03 378.899C366.926 380.339 360.325 380.339 355.942 380.636L355.008 380.25C362.799 374.387 373.659 372.768 383.082 371.712Z"/>
	<path fill="#FEFEFE" d="M135.482 365.736L135.743 375.346C133.731 377.692 129.685 383.201 127 384.024L126.539 382.987L123.911 376.807L135.482 365.736Z"/>
	<path fill="#FEFEFE" d="M477.395 389.001C477.474 390.122 477.255 390.238 476.75 391.196C478.163 393.089 477.461 398.621 477.417 401.092L455.615 400.112L454.25 400.367L454.188 399.75L477.395 389.001Z"/>
	<path fill="#FEFEFE" d="M130.696 311.832C131.68 314.517 131.512 317.54 131.907 320.362C128.278 325.893 123.444 330.512 118.42 334.762L117.886 334.5L117.445 324.569C122.67 320.889 126.453 316.562 130.696 311.832Z"/>
	<path fill="#FEFEFE" d="M117.954 178.333C120.3 180.445 120.649 184.949 121.105 187.977L109.888 199.778L108.5 200.638L108.014 200.25L107.629 196L107.484 194.719C107.02 188.218 114.04 182.788 117.954 178.333Z"/>
	<path fill="#FEFEFE" d="M132.351 327.188L133.549 341.024C128.345 344.21 123.984 348.826 119.542 352.973L119.342 352.637L119.177 351.25C118.983 350.499 118.593 350.168 118.707 349.352C119.1 346.54 118.561 343.165 118.396 340.306L132.351 327.188Z"/>
	<path fill="#FEFEFE" d="M476.775 381.397C477.489 381.525 477.075 381.39 477.936 382C477.9 383.908 478.17 385.51 477.13 387.159L454.878 396.506C452.087 397.782 449.424 399.698 446.515 400.652C440.447 402.64 433.414 403.678 427.144 405.089L426.447 405.239L426.181 404.75C429.257 403.879 432.069 401.878 435 400.584L476.775 381.397Z"/>
	<path fill="#FEFEFE" d="M133.832 345.867C134.582 348.965 135.904 355.856 134.975 358.857L134.797 359.332C134.696 359.908 134.896 360.421 134.59 360.976C133.854 362.312 131.875 363.757 130.765 364.831L123.75 371.988L122.766 371.85C121.72 369.742 120.799 367.576 120.425 365.242L119.255 359.642C120.586 357.697 122.851 356.065 124.62 354.495L133.832 345.867Z"/>
	<path fill="#FEFEFE" d="M302.83 384.661L303.75 384.615L304.401 385.25L283 396.5C277.076 399.839 271.138 403.91 264.841 406.468C262.326 407.49 260.164 408.865 257.506 409.566L260.053 407.25L259.79 406.25L258.5 406.941L258.087 406.25C262.561 401.115 270.073 397.798 275.887 394.242C279.076 392.291 282.238 389.752 285.783 388.537C291.417 386.606 296.972 385.675 302.83 384.661Z"/>
	<path fill="#FEFEFE" d="M459.346 364.15C460.267 363.949 460.258 363.761 461.124 364.25C452.96 367.208 445.078 371.785 436.829 374.556C433.076 375.817 428.738 375.856 424.812 376.218L409.547 377.572L408.25 377.855L408.11 377.25C413.191 374.54 418.849 372.671 424.103 370.279C426.687 369.103 431.642 365.915 434.356 365.879C442.204 365.777 451.825 366.446 459.346 364.15Z"/>
	<path fill="#FEFEFE" d="M323.768 382.124C323.774 382.343 323.905 382.597 323.785 382.781C323.38 383.406 320.867 384.746 320.136 385.23C315.167 388.523 308.229 391.933 304.522 396.5C304.856 396.996 305.183 397.459 305.441 398C300.069 401.712 293.46 404.13 287.583 406.926L259.75 420.428C259.254 421.584 259.592 422.412 259.859 423.588L258.742 423.261L258.184 416.832L301.632 394.199C309.051 390.288 315.87 385.093 323.768 382.124Z"/>
	<path fill="#FEFEFE" d="M312.416 450.394C306.734 451.933 301.247 452.283 295.508 453.297C300.174 450.135 305.446 447.658 310.418 444.991L353.884 423.405L445.031 379.909C450.458 377.581 455.877 375.154 461.452 373.205C463.89 372.352 466.42 371.332 469 371.087L469.539 371.75C469.276 372.111 469.09 372.544 468.75 372.834C467.99 373.481 465.918 374.069 464.957 374.487L454.5 378.981L421.789 393.077C419.376 394.076 416.853 395.75 414.333 396.32C413.576 396.491 413.905 396.335 413.246 396.739C409.764 398.873 405.74 400.437 402.042 402.205L382.07 412.152L362.619 422.042L319.956 445.694C317.711 447.065 314.245 448.567 312.416 450.394Z"/>
	<path fill="#FEFEFE" d="M667.981 439.762L706.391 448.263C700.687 451.932 695.483 455.434 690.285 459.813L671.811 474.202C670.994 465.051 668.412 455.948 667.447 446.75C667.317 445.512 666.613 442.308 667.011 441.25C667.219 440.696 667.657 440.258 667.981 439.762Z"/>
	<path fill="#FEFEFE" d="M380.354 384.647C381.745 384.486 382.845 384.43 384.25 384.611C382.11 386.896 375.714 388.994 372.648 390.474L351.077 401.314L298.492 428.017L265.364 445.623L262.389 446.824C260.98 445.884 260.826 443.434 260.413 441.778C265.847 435.988 274.762 433.015 281.75 429.503L331.499 405.64C345.311 399.136 358.751 391.936 373.01 386.366C375.394 385.435 377.834 385.023 380.354 384.647Z"/>
	<path fill="#FEFEFE" d="M357.865 385.696L365.01 385.556C349.563 391.165 334.617 399.763 319.85 406.999C301.053 416.21 281.898 424.673 263.674 435.036L260.75 436.539C259.296 434.944 259.38 429.867 259.176 427.596C274.805 417.727 292.056 410.928 308.739 403.12C318.984 398.325 329.559 392.039 340.368 388.712C345.77 387.048 352.271 386.653 357.865 385.696Z"/>
	<path fill="#FEFEFE" d="M383.464 416.42C393.863 411.432 473.342 372.41 477.25 373.108C477.828 374.889 478.071 376.07 477.887 377.941C473.301 381.252 466.993 383.061 461.801 385.311L429.877 399.031L411.364 406.25C397.248 412.3 384.653 419.826 371.642 427.885C368.872 429.601 361.65 433.027 360.386 435.75L360.75 437.38L361.504 437.669C368.849 433.002 376.807 429.4 384.434 425.25C387.977 423.322 391.26 420.893 395.026 419.403C391.1 422.917 386.402 426.435 383.067 430.494C380.364 433.784 378.291 439.132 375.224 441.821L374.819 441.77C371.363 441.418 367.486 442.267 364.065 442.825L345.237 446.103C337.54 447.359 329.711 447.953 322.093 449.745L317.25 450.326L383.464 416.42Z"/>
	<path fill="#FEFEFE" d="M428.548 380.705L433.865 380.441L414.795 388.86L378 406.45L325.088 433.446L300.663 446.768C296.869 449.05 292.721 452.964 288.668 454.524C285.992 455.555 282.758 455.807 279.938 456.213L266.124 458.263C264.951 458.485 263.867 458.862 262.75 458.282C262.419 456.677 261.41 452.732 262.207 451.374L340.916 411.028L386.191 389.195C390.146 387.41 394.118 384.5 398.263 383.301C402.038 382.21 407.445 382.695 411.461 382.392L428.548 380.705Z"/>
	<path fill="#FEFEFE" d="M458.821 405.238L464.25 405.197L475.55 405.864C477.027 406.09 478.478 406.267 479.906 406.727C481.086 407.107 481.13 406.868 482.25 406.458C484.7 407.445 487.663 407.807 490.25 408.507C495.1 409.819 499.942 411.676 504.472 413.841C512.707 417.777 519.618 423.157 525.848 429.762C527.836 431.87 529.96 433.972 531.427 436.488C532.999 439.184 533.967 442.283 535.012 445.211C528.526 447.336 520.738 447.93 513.962 448.68L501.648 450.022C500.336 450.201 498.643 450.185 497.64 451.099C497.623 452.698 497.425 452.793 498.5 453.938L524.456 451.467L543.664 449.174L601.031 442.727L645.112 441.449C648.64 441.439 656.695 440.117 659.367 442.076L660.559 456.772C660.574 457.525 660.547 458.127 660.797 458.853C661.39 460.575 661.56 462.519 661.851 464.32L622.25 466.501L586.755 469.994L547 474.454C538.589 475.613 529.552 476.44 521.493 479.273C519.593 479.941 518.442 480.698 517.642 482.5C517.972 484.281 518.075 484.573 519.25 485.943C521.809 486.919 524.695 486.571 527.398 486.627L539.079 487.084C538.977 494.102 538.04 500.521 535.614 507.129C534.047 510.814 532.4 515.019 529.966 518.233C527.507 521.481 524.426 522.479 522.84 526.75C522.318 528.156 522.544 528.419 523.072 529.75C524.566 530.24 525.028 529.897 526.5 529.444C529.603 531.077 532.281 533.463 535.007 535.648C541.066 540.505 547.195 546.089 553.764 550.211L554.188 550.471C554.079 557.136 552.643 562.948 548.214 568.125C541.854 561.034 533.559 555.377 526.052 549.529C522.761 546.965 519.309 544.602 516.488 541.5C517.161 540.736 517.512 540.222 517.826 539.25C517.614 538.777 517.365 538.154 517.041 537.75C516.464 537.029 515.659 536.814 514.794 536.672C513.717 536.494 513.703 536.794 512.877 537.381L512.152 537L511.5 536.487L509.5 537.038L508.75 537.979C507.835 538.838 504.776 539.559 503.451 540.211C492.895 545.409 482.32 548.635 470.75 550.512C462.452 551.859 453.979 553.476 445.527 553.427C439.721 553.393 433.786 553.153 428.078 552.008C411.233 548.63 394.512 541.097 384.815 526.33C380.189 519.284 377.775 511.665 375.558 503.615C372.692 493.214 370.242 481.107 371.516 470.25C371.907 466.914 373.467 463.6 374.16 460.25L373.201 458.833C373.77 458.405 374.291 458.004 374.685 457.395C376.129 455.162 376.884 452.178 378.03 449.75C380.716 444.059 384.667 437.973 388.89 433.315C406.455 413.936 433.555 406.528 458.821 405.238Z"/>
	<path fill="#231F20" d="M402.347 482.678L405.877 483.628C410.672 485.107 417.682 487.816 420.156 492.506L418 492.567C414.084 492.304 410.349 489.758 406.881 488.163C405.126 487.355 403.159 487.04 401.873 485.5L402.347 482.678Z"/>
	<path fill="#231F20" d="M486.029 519.754C487.743 518.381 489.181 517.293 491.25 516.483L492.526 516.75C493.068 517.899 493.09 518.648 493.118 519.888C490.697 522.85 484.081 527.366 480.25 528.011C479.083 527.281 479.066 527.364 478.705 526.049C479.761 523.565 483.817 521.323 486.029 519.754Z"/>
	<path fill="#231F20" d="M411.859 456.754C418.934 455.988 423.353 457.585 429.27 461.382C434.388 464.666 437.32 470.503 438.573 476.25C439.327 479.704 439.482 484.382 438.024 487.68C435.341 493.745 432.406 497.406 425.947 499.819C419.464 502.241 412.63 502.369 406.326 499.411C401.248 497.029 397.317 492.573 395.568 487.25C394.591 484.276 393.435 477.729 394.97 474.88C395.546 473.811 395.455 474.251 395.667 473.086L395.75 472.422L396.75 472.06C398.408 474.175 398.081 477.571 398.465 480.246C399.157 485.061 402.474 490.183 406.309 493.012C408.619 494.471 411.718 496.126 414.5 495.974L415.206 495.114L415.958 495.75C417.853 496.141 419.521 495.411 421.364 495.056C423.902 494.566 425.933 494.041 428.039 492.425C430.969 490.176 433.039 486.279 433.425 482.614C434.11 476.112 431.863 471.949 427.806 467.169C427.429 468.163 426.954 469.693 426.219 470.47C424.864 471.903 422.403 472.458 420.839 473.773C418.038 476.129 416.645 479.298 413.475 481.628C412.546 482.31 413.035 482.197 411.965 482.031C411.25 480.821 411.127 480.11 411 478.75C413.979 473.538 417.152 469.308 422.064 465.75C423.546 465.431 424.505 465.452 425.999 465.728L426.472 465.82L426.5 465.25C423.945 463.714 421.069 462.203 418.158 461.521L417.5 461.376C412.56 460.256 407.53 461.658 402.901 463.314L402.071 462.75L402.44 461C404.231 458.408 408.938 457.505 411.859 456.754Z"/>
	<path fill="#FEFEFE" d="M516.168 52.5715C516.775 52.5488 517.463 52.755 518.063 52.8677C519.877 54.9761 520.56 57.6682 521.284 60.3015C522.783 65.75 523.831 71.3953 524.496 77.0069C528.641 111.941 527.826 147.266 530.64 182.276L537.67 257.25L545.255 330.501C538.949 333.417 531.786 334.687 525.039 336.178C504.151 340.794 483.09 343.322 462 346.641L410 355.499L354.25 363.477L267.091 379.649L205 389.514L168.157 397.917C161.686 399.548 153.439 403.217 146.807 403.176L147.042 400.125C147.157 371.582 144.484 342.752 141.594 314.395L138.856 280.42L134.824 248.177L133.184 215.678L132.609 206.594C132.504 205.245 131.97 203.644 132.244 202.334C132.543 200.907 132.24 199.661 131.944 198.25C131.643 196.816 131.852 196.123 131.915 194.75C131.996 192.992 131.245 190.55 130.903 188.799L123.877 153.75L120.152 125.688C119.806 123.175 118.998 120.74 118.645 118.228C118.524 117.366 118.43 116.682 118.145 115.845C117.851 114.982 117.872 115.237 117.755 114.455L114.458 98.5475L314.75 75.4065C323.755 75.1565 333.188 73.3989 342.188 72.3444L392.591 66.5257L516.168 52.5715Z"/>
	<path fill="#231F20" d="M513.748 273.236C516.859 273.128 520.618 272.787 523.25 274.525L523.314 275.75C521.428 277.588 518.484 278.715 515.945 279.326C504.777 282.01 492.825 282.935 481.429 284.552C464.858 286.903 448.757 289.886 432.5 293.854C426.812 295.243 421.081 296.41 415.488 298.161C412.969 299.011 410.385 300.086 407.75 300.473L406.667 299.387C406.478 297.623 406.35 297.653 407.4 296.25C412.711 293.739 419.275 292.596 425 291.079L478.689 278.966C490.294 276.601 501.873 273.591 513.748 273.236Z"/>
	<path fill="#231F20" d="M451.401 195.203L460.349 195.193C461.049 195.94 461.642 196.158 461.607 197.25C461.562 198.656 460.995 199.932 459.934 200.874C458.456 202.186 451.601 203.361 449.587 203.381C444.153 203.432 438.639 204.445 433.247 205.118L408.724 207.999L315.5 221.005C298.997 223.518 282.503 227.02 265.88 228.564L256.75 229.486C255.509 228.534 255.7 228.323 255.449 226.75C256.356 225.901 256.383 225.769 257.614 225.639L320.608 216.209L406.258 203.125C421.312 200.735 436.232 196.539 451.401 195.203Z"/>
	<path fill="#231F20" d="M503.096 259.733C503.837 259.829 503.587 259.847 504.236 259.768C507.079 259.422 509.591 259.075 511.967 260.75L512.073 262.5C509.663 265.349 501.154 266.438 497.349 267.196L482.647 269.527L436.665 277.337L331.678 295.712L299.379 301.373L292 302.881C290.778 302.122 290.745 302.091 290.227 300.75C292.103 298.498 296.329 298.073 299.136 297.458L326.048 292.454L407.75 278.075L469.531 266.566L503.096 259.733Z"/>
	<path fill="#231F20" d="M468.277 106.657C469.845 106.419 470.785 106.651 472.25 107.115C473.433 108.496 473.437 108.437 473.422 110.25C471.51 111.971 468.741 112.739 466.254 113.251C451.693 116.25 436.279 117.024 421.5 118.678L354.857 127.697C320.559 132.827 285.531 138.525 251.861 146.929L248.75 147.495C247.528 146.72 247.569 146.379 247.052 145L247.612 144.142C253.922 141.681 261.526 140.812 268.172 139.457L293.559 134.156L417.494 113.918C427.667 112.525 438.435 109.956 448.646 109.481C449.436 109.444 450.087 109.421 450.872 109.259L468.277 106.657Z"/>
	<path fill="#231F20" d="M481.124 203.696C483.897 203.402 487.576 202.974 489.925 204.5L489.88 205.995C488.522 207.353 487.298 207.821 485.431 208.25C481.661 209.116 477.597 209.245 473.743 209.565L455.769 210.912L425.927 213.884L407 216.412L393.351 217.855L335.422 228.267L271.749 241.916C269.209 242.696 266.646 243.641 264 243.955C262.83 242.973 262.766 242.985 262.467 241.5L263.25 240.376C266.998 238.394 271.638 237.658 275.745 236.7L294.106 232.376L357.25 219.471L429.25 207.765C437.011 206.791 444.939 206.701 452.745 206.25L481.124 203.696Z"/>
	<path fill="#231F20" d="M482.014 115.198C484.31 114.97 487.637 114.594 489.51 116C489.611 117.597 489.817 117.995 488.927 119.375C486.196 120.566 483.258 120.919 480.352 121.499C476.196 122.33 472.251 123.356 468 123.807C463.172 124.319 458.335 124.274 453.5 124.584L432 126.557L399.106 130.828L273.104 154.158L269.87 154.75C268.154 154.957 267.785 154.834 266.444 153.75L266.584 152.25C267.591 151.283 268.328 150.843 269.69 150.495C284.348 146.748 299.832 144.724 314.705 141.753L403.55 124.978L458.25 118.499L482.014 115.198Z"/>
	<path fill="#231F20" d="M249.561 311.542C249.749 311.03 249.959 310.568 249.965 310C249.981 308.662 249.263 306.734 248.971 305.398L246.864 295.49C246.014 290.698 245.843 285.801 244.927 280.983L222.956 287.067L197.41 294.465C191.854 296.059 186.324 297.716 180.567 298.42C178.859 298.629 176.946 298.98 175.25 298.602C174.252 297.278 174.45 297.209 174.629 295.53C175.876 294.345 177.719 294.28 179.349 293.974C184.047 293.093 188.629 292.336 193.254 291.058L232.8 279.511C237.655 278.224 242.744 276.526 247.75 276.045C248.784 276.751 249.646 277.394 250.19 278.579C252.007 282.539 252.347 288.052 253.24 292.376C254.961 300.711 256.995 309.701 260.087 317.638C260.278 318.129 261.026 320.558 261.354 320.818C262.825 321.982 264.275 321.457 265.564 323.25L265.411 324.438C263.848 325.512 262.307 326.813 260.671 327.75C256.748 329.998 251.161 331.362 246.889 333.072L225.75 341.492C215.034 345.19 203.727 348.006 193.188 352.11C191.313 352.84 190.297 352.675 188.5 351.944C186.967 352.156 185.686 352.405 184.25 352.991C179.676 349.934 177.796 338.536 176.744 333.23C175.444 326.676 172.297 308.265 175.357 302.472C175.603 302.006 175.684 301.969 176.013 301.654C178.857 303.934 179.106 307.279 179.469 310.631C180.473 319.9 182.023 328.508 184.706 337.455L185.181 337.14C189.345 334.464 209.83 326.905 211.143 324.203L209.263 323.318C206.977 321.985 200.791 316.734 200.183 314.545C200.913 313.438 201.085 313.009 202.25 312.421C205.099 313.164 208.151 315.818 210.662 317.442C215.504 314.147 217.861 309.143 220.662 304.192L227.742 292.25C228.917 292.348 229.549 293.04 230.435 293.75C229.144 300.704 223.597 308.484 219.806 314.374C217.744 317.578 216.356 320.418 213.555 323.098L214.076 322.927C215.73 322.371 217.033 321.965 218 320.409L219.5 320.494L220.311 321.5C219.337 324.288 213.675 326.739 211.093 327.957C207.267 329.762 187.662 337.063 186.514 339.75C187.051 341.244 187.375 342.866 188.75 343.798L190.484 343.603C192.91 341.773 196.552 341.111 199.386 339.935L212.136 334.038C225.074 327.603 237.658 319.718 249.561 311.542Z"/>
	<path fill="#FEFEFE" d="M253.363 319.858C254.202 320.96 254.822 321.611 255.12 323C253.07 324.758 249.568 325.48 247.052 326.486L225.844 334.647L223.277 335.771C223.718 335.18 224.001 334.788 224.675 334.441C225.341 334.098 226.026 333.841 226.673 333.451L253.363 319.858Z"/>
	<path fill="#FEFEFE" d="M250.013 313.02L251.291 313.25C251.858 314.967 252.077 316.156 251.972 317.966C246.483 319.575 240.649 323.313 235.643 326.106C232.589 327.81 229.484 329.077 226.5 330.997L225.544 331.04L224.956 331.722C222.795 334.082 219.437 334.013 217.233 335.75C216.914 336.001 216.627 337.563 216.531 337.982C213.209 338.471 209.073 341.037 206 340.777C207.785 337.934 213.206 336.471 216.19 334.75L232.5 324.967C238.322 321.562 245.297 317.864 250.013 313.02Z"/>
	<path fill="#FEFEFE" d="M162.409 210.001L162.635 209.465C162.973 208.175 162.783 207.573 163.75 206.522C164.797 206.484 165.712 206.477 166.707 206.112C168.353 205.509 170.257 205.403 171.99 205.065L187 202.536C194.068 201.339 201.21 199.491 208.172 197.77C211.287 197 214.459 196.293 217.512 195.304C220.868 194.217 224.971 192.206 228.5 192.522C229.995 193.532 231.411 194.817 232.13 196.52C234.218 201.462 234.454 208.448 235.376 213.798L239.232 234.812C239.884 239.008 239.828 243.733 242.052 247.475L244.25 248.497L244.25 249.525C242.543 251.424 240.641 252.225 238.378 253.285L228.75 257.734C227.592 257.554 228.002 257.464 227.028 257.811C220.1 260.278 212.492 262.888 205.25 264.226C196.369 265.867 187.175 266.429 178.425 268.866C177.596 269.096 176.974 269.355 176.091 269.273C175.2 269.19 174.316 269.443 173.465 269.269C171.172 268.799 168.244 268.691 166.801 266.791C160.689 258.738 159.281 245.574 158.104 235.867C157.451 230.473 156.567 225.13 157.292 219.699C157.633 217.146 157.872 211.907 159.75 210.012L162.409 210.001Z"/>
	<path fill="#231F20" d="M203.687 217.78C205.052 218.175 205.142 218.055 205.866 219.25C204.57 222.626 201.635 225.879 199.54 228.85C194.811 235.555 190.48 242.488 184.851 248.485L184.485 248.715L183.663 248.369L183.565 245.25C186.428 240.493 189.917 236.032 193.094 231.475C196.327 226.838 199.414 221.499 203.687 217.78Z"/>
	<path fill="#231F20" d="M162.409 210.001L162.635 209.465C162.973 208.175 162.783 207.573 163.75 206.522C164.797 206.484 165.712 206.477 166.707 206.112C168.353 205.509 170.257 205.403 171.99 205.065L187 202.536C194.068 201.339 201.21 199.491 208.172 197.77C211.287 197 214.459 196.293 217.512 195.304C220.868 194.217 224.971 192.206 228.5 192.522C229.995 193.532 231.411 194.817 232.13 196.52C234.218 201.462 234.454 208.448 235.376 213.798L239.232 234.812C239.884 239.008 239.828 243.733 242.052 247.475L244.25 248.497L244.25 249.525C242.543 251.424 240.641 252.225 238.378 253.285L228.75 257.734C227.592 257.554 228.002 257.464 227.028 257.811C220.1 260.278 212.492 262.888 205.25 264.226C196.369 265.867 187.175 266.429 178.425 268.866C177.596 269.096 176.974 269.355 176.091 269.273C175.2 269.19 174.316 269.443 173.465 269.269C171.172 268.799 168.244 268.691 166.801 266.791C160.689 258.738 159.281 245.574 158.104 235.867C157.451 230.473 156.567 225.13 157.292 219.699C157.633 217.146 157.872 211.907 159.75 210.012L162.409 210.001C162.097 210.693 161.902 211.29 161.789 212.043C160.772 218.798 161.669 225.601 162.577 232.277C164.008 242.801 165.65 255.261 172.25 264.01L175 263.523C175.713 263.324 175.886 263.083 176.639 263.176C177.252 263.252 177.036 263.298 177.628 263.171L186.04 261.217C187.489 260.771 190.171 260.065 191.688 259.999C192.546 259.962 192.353 260.091 193.016 259.74L193.5 259.445C194.231 259.112 194.918 258.935 195.63 258.512C201.784 254.858 208.226 253.498 214.743 250.973C216.474 250.302 218.003 249.048 219.789 248.599C220.995 248.296 220.041 248.67 221.41 248.077L222.124 247.75L223.5 248.477L225.016 247.631C227.43 248.216 228.926 246.393 231.25 247.351C233.242 246.285 235.046 247.379 236.517 246.25C236.439 244.852 236.712 243.41 235.75 242.359L234.336 243.82C233.376 243.762 232.711 243.794 231.76 244.008C228.378 244.771 225.102 245.086 221.799 246.35C219.531 247.219 217.391 248.598 215.25 249.745L214.25 249.38L214.27 248.75L220.301 245.62C223.211 243.682 227.272 242.994 230.663 242.175C232.179 241.808 234.379 241.608 235.497 240.5C235.271 238.907 235.455 237.637 234.25 236.524C227.045 239.015 220.977 243.472 214.25 246.827C210.391 248.751 206.169 250.207 202.117 251.68C193.776 254.812 184.733 258.748 176 260.391C174.051 259.17 173.601 257.836 172.862 255.75L173.5 255.474L174.174 255.75C174.37 256.666 174.63 257.402 175.028 258.25L175.75 258.432C176.068 256.706 175.009 256.3 175.25 254.575C177.277 254.398 180.14 254.284 181.939 255.25C180.3 256.163 178.836 255.932 177 255.952L176.554 256.5L177.25 257.996C178.192 257.588 177.846 257.677 178.611 257.508C180.911 256.999 182.545 255.62 184.736 254.93C202.114 249.459 218.846 243.194 234.509 233.648C232.492 221.569 229.489 209.35 228.822 197.111C211.835 202.464 194.656 206.177 176.983 208.518C174.202 208.886 170.159 209.887 167.411 209.378C166.522 209.213 166.969 209.175 166.069 209.461C164.838 209.851 163.689 209.909 162.409 210.001Z"/>
	<path fill="#231F20" d="M217.313 108.231L219.152 109.355C225.8 121.831 227.761 136.487 229.423 150.299C229.629 152.019 230.296 153.794 230.241 155.517L230.201 156.143C230.263 157.043 230.536 157.442 230.277 158.355C230.068 159.091 230.072 158.829 230.074 159.505C230.079 161.697 232.298 162.973 233.841 164.437C227.264 167.38 219.568 168.554 212.646 170.786C195.236 176.401 178.4 183.606 160.115 186.272C157.478 186.656 154.866 186.241 152.271 186.564C151.228 186.694 150.735 186.901 149.75 186.399L146.212 176.2C144.159 167.833 143.566 159.251 142.427 150.75L139.75 135.788C139.374 132.874 139.789 129.657 139.197 126.844L139.007 126L140.113 124.25C138.314 124.021 136.549 124.817 134.75 124.849C133.125 124.878 132.223 123.967 131.16 122.888C131.129 120.716 131.096 118.536 132.412 116.689C133.533 115.116 135.087 114.102 137.031 113.938C139.058 113.767 141.72 115 143.192 116.352C143.709 118.215 144.055 119.631 143.715 121.564L143.628 122L144.162 122.75C145.796 122.513 147.64 122.069 149.281 122.271C154.25 122.884 161.151 120.937 166.08 120.088L187 116.463C196.603 114.773 206.076 112.272 215.75 110.946L217.313 108.231Z"/>
	<path fill="#FEFEFE" d="M201.11 163.965C206.233 162.379 212.037 160.224 217.412 160.153L218.695 161.481L218.5 161.823L216.098 162.304L215 161.377L214.549 162C212.575 164.607 206.565 165.783 203.457 166.912L191.75 171.517L190.806 171.25L190.25 170.09C189.314 170.353 189.451 170.099 189.085 170.736C188.676 171.449 188.822 171.229 188.732 172.25L187.75 171.171L186.75 171.517L186.064 173.071C182.236 174.485 178.124 175.253 174.172 176.245L159.973 179.833C162.335 177.811 165.185 176.765 168.015 175.563C170.135 174.488 172.265 173.948 174.476 173.135L201.11 163.965Z"/>
	<path fill="#FEFEFE" d="M167.374 173.564C164.214 174.544 161.367 175.853 158.404 177.315C158.879 175.207 159.738 172.758 159.25 170.622C157.775 170.278 156.889 170.574 155.5 171.011C154.416 172.042 154.391 172.281 154.023 173.75C154.293 174.335 154.427 174.522 154.484 175.25C154.586 176.553 154.226 178.861 153.5 179.967L152.75 179.823C153.027 175.802 151.327 172.153 150.622 168.23L148.533 153.426C148.378 152.15 147.609 150.981 147.619 149.718C147.638 147.302 146.765 145.483 146.127 143.192C144.753 138.26 143.292 131.947 144.301 126.927C157.14 126.026 169.584 123.781 182.25 121.613C193.03 119.768 204.471 117.965 215.042 115.201L215.927 114.964C217.67 118.626 218.021 122.9 218.75 126.852C220.04 133.852 221.238 140.675 221.427 147.824C221.477 149.743 221.817 152.157 221.231 153.976L209.484 156.261C202.638 156.981 195.471 159.389 188.75 160.963C186.513 161.486 183.777 162.417 181.474 162.307L180.658 162.25L181.044 162.052C182.168 161.443 182.954 160.81 183.725 159.783C187.463 154.802 190.565 149.073 194.064 143.886L200.84 134.564C201.722 133.358 203.256 131.66 203.601 130.223L203.657 129.75C202.773 128.751 201.742 128.693 200.5 128.46C197.064 129.49 195.008 133.527 193.014 136.358L184.389 148.357C182.825 150.525 181.275 153.1 179.321 154.916C174.712 151.145 171.045 148.82 164.818 149.616C163.138 149.831 162.076 150.239 160.75 151.27C160.159 152.961 160.123 152.94 160.75 154.61C163.652 155.969 166.28 155.07 169.25 155.577C171.79 156.011 173.629 157.501 175.336 159.324C176.646 160.721 178.491 161.645 180.131 162.61C177.252 163.588 174.56 164.633 171.904 166.129L171.282 166.398C169.704 167.069 168.326 167.558 166.655 167.943C163.932 168.571 163.066 169.41 161.608 171.75L161.465 173.5C162.416 174.113 162.002 174.083 163.08 173.905C164.631 173.649 165.851 172.27 166.965 171.25L167.074 170.096C168.481 169.353 170.049 169.035 171.409 168.284C177.795 166.073 184.059 164.388 190.614 162.735C192.866 162.167 197.248 161.893 199 160.585C199.791 159.994 200.186 159.814 201.147 159.616C205.315 158.754 210.403 158.445 214.337 156.944C215.336 156.563 216.198 156.319 217.25 156.13C218.421 156.529 218.866 156.354 219.451 157.5L218.75 157.879L217.75 156.938L199.158 161.787C191.002 165.172 182.429 168.065 174 170.618C173.097 170.892 172.418 171.345 171.675 171.899C170.449 172.811 168.822 173.141 167.374 173.564Z"/>
</svg>
